<svg id="Group_777" data-name="Group 777" xmlns="http://www.w3.org/2000/svg" width="41.828" height="41.796" viewBox="0 0 41.828 41.796">
  <path id="Path_175" data-name="Path 175" d="M-74.933,336.547a5.407,5.407,0,0,0-.856,1.444,5.305,5.305,0,0,0,.169,1.655,17.314,17.314,0,0,0-23.035,5.542,16.967,16.967,0,0,0,2.36,21.284,17.1,17.1,0,0,0,21.555,2.044,17.137,17.137,0,0,0,5.266-22.7,5.344,5.344,0,0,0,1.64.165,4.8,4.8,0,0,0,1.346-.811c3.328,5.2,3.86,15.322-2.775,22.668a20.256,20.256,0,0,1-27.829,2.143,20.185,20.185,0,0,1-3.888-26.925A20.249,20.249,0,0,1-74.933,336.547Z" transform="translate(104.462 -332.732)" fill="#fff"/>
  <path id="Path_176" data-name="Path 176" d="M-78.008,343.541c-.771.716-1.509,1.437-2.3,2.1-.136.116-.49.045-.716-.027a9.609,9.609,0,0,0-11.387,4.449,9.568,9.568,0,0,0,6.952,14.113,9.655,9.655,0,0,0,10.875-7.255A9.175,9.175,0,0,0-74.8,351.7a.832.832,0,0,1,.252-1.027c.626-.584,1.206-1.216,1.823-1.847a12.55,12.55,0,0,1-3.14,15.7,12.822,12.822,0,0,1-17.144-.848,12.685,12.685,0,0,1-.77-17.067A12.735,12.735,0,0,1-78.008,343.541Z" transform="translate(104.14 -333.056)" fill="#fff"/>
  <path id="Path_177" data-name="Path 177" d="M-79,351.924a4.818,4.818,0,0,1-.1,4.849,5.512,5.512,0,0,1-3.918,2.763,5.276,5.276,0,0,1-5.557-3.084,5.242,5.242,0,0,1,1.28-6,5.074,5.074,0,0,1,5.548-.96.662.662,0,0,0,.856-.138q3.9-3.873,7.841-7.709a1.025,1.025,0,0,0,.376-1.046c-.02-.085.006-.183-.022-.264-.5-1.461.13-2.44,1.214-3.4,1.47-1.3,2.8-2.761,4.305-4.272.106.884.2,1.631.287,2.38.069.592.148,1.185.186,1.779.028.433.228.6.652.636,1.232.116,2.459.268,3.689.407.1.011.2.036.374.068-.161.186-.265.321-.383.441-1.64,1.643-3.287,3.279-4.919,4.931a.938.938,0,0,1-.926.308c-2.151-.342-2.155-.328-3.709,1.229Q-75.464,348.383-79,351.924Z" transform="translate(103.821 -332.666)" fill="#fff"/>
</svg>
