<svg xmlns="http://www.w3.org/2000/svg" width="55.471" height="39.562" viewBox="0 0 55.471 39.562">
  <g id="Group_784" data-name="Group 784" transform="translate(0)">
    <rect id="Rectangle_1964" data-name="Rectangle 1964" width="55.47" height="6.981" transform="translate(0)" fill="#f88b48"/>
    <g id="Group_783" data-name="Group 783" transform="translate(0 10.366)">
      <path id="Path_201" data-name="Path 201" d="M-564.082,588.145h-.067a2.337,2.337,0,0,0-.85.118v2.8a2.292,2.292,0,0,0,.917.17.97.97,0,0,0,.815-.45,1.887,1.887,0,0,0,.323-1.129Q-562.945,588.16-564.082,588.145Z" transform="translate(600.08 -577.36)" fill="#f88b48"/>
      <path id="Path_202" data-name="Path 202" d="M-596.418,578.486v29.2h55.47v-29.2Zm13.075,18.153a1.5,1.5,0,0,1-.45,1.13,1.612,1.612,0,0,1-1.164.433,1.591,1.591,0,0,1-1.179-.451,1.568,1.568,0,0,1-.451-1.163v-.067a1.543,1.543,0,0,1,.5-1.07,1.62,1.62,0,0,1,1.129-.409,1.59,1.59,0,0,1,1.164.442,1.5,1.5,0,0,1,.45,1.121Zm7.471,1.477h-1.97l-3.922-10.749h2.65l2.241,6.47,2.276-6.47h2.666Zm8.575,0h-2.564V587.367h2.564Zm9.2-4.262a3.894,3.894,0,0,1-2.106.594,5.227,5.227,0,0,1-.747-.067c-.282-.035-.413-.062-.391-.085v3.82h-2.615V587.385a9.715,9.715,0,0,1,1.325-.136q1.2-.084,1.868-.084,4.227,0,4.227,3.4A3.613,3.613,0,0,1-558.093,593.854Zm6.435,2.785a1.5,1.5,0,0,1-.449,1.13,1.614,1.614,0,0,1-1.164.433,1.6,1.6,0,0,1-1.18-.451,1.571,1.571,0,0,1-.45-1.163v-.067a1.542,1.542,0,0,1,.5-1.07,1.623,1.623,0,0,1,1.13-.409,1.592,1.592,0,0,1,1.164.442,1.508,1.508,0,0,1,.449,1.121Z" transform="translate(596.418 -578.486)" fill="#f88b48"/>
    </g>
  </g>
</svg>
