<svg xmlns="http://www.w3.org/2000/svg" width="44.917" height="39.26" viewBox="0 0 44.917 39.26"><g transform="translate(254.34 -894.301)"><path d="M-241.036,925.789a3.053,3.053,0,0,0-1.01-1.889,3.187,3.187,0,0,0-2.071-.7h-.075a3.244,3.244,0,0,0-2.029.618,2.847,2.847,0,0,0-1.03,1.875v0h0a4.7,4.7,0,0,0-.05.664,2.953,2.953,0,0,0,.677,1.979l0,0h0a3.316,3.316,0,0,0,2.494,1.116l.131,0h.007a3.256,3.256,0,0,0,2.5-1.361,2.822,2.822,0,0,0,.507-1.669A3.827,3.827,0,0,0-241.036,925.789Zm-3,2.636-.087,0a2.284,2.284,0,0,1-1.72-.768,1.917,1.917,0,0,1-.422-1.3,3.637,3.637,0,0,1,.039-.513,1.811,1.811,0,0,1,.643-1.216,2.219,2.219,0,0,1,1.394-.4h.061a2.159,2.159,0,0,1,1.419.458,2.017,2.017,0,0,1,.657,1.267v.005a2.737,2.737,0,0,1,.041.465,1.8,1.8,0,0,1-.312,1.066l0,0A2.22,2.22,0,0,1-244.04,928.425Z" transform="translate(0.224 0.944)" fill="#fff" stroke="#fff" stroke-width="0.5"/><path d="M-241.236,925.7v0Z" transform="translate(0.423 1.026)" fill="#fff" stroke="#fff" stroke-width="0.5"/><path d="M-241.672,927.938h0Z" transform="translate(0.409 1.1)" fill="#fff" stroke="#fff" stroke-width="0.5"/><path d="M-222.5,923.118a3.211,3.211,0,0,0-2.351,1.027,3.254,3.254,0,0,0-.891,2.205,3.088,3.088,0,0,0,.027.4,3.3,3.3,0,0,0,.943,1.862,3.006,3.006,0,0,0,1.908.907c.1.006.192.01.288.01a3.13,3.13,0,0,0,2.71-1.379,3.111,3.111,0,0,0,.5-1.549l-.516-.027.516.026,0-.167a3.455,3.455,0,0,0-.866-2.273A3.025,3.025,0,0,0-222.5,923.118Zm2.106,3.43a2.059,2.059,0,0,1-.336,1.036,2.09,2.09,0,0,1-1.847.913l-.22-.008a1.979,1.979,0,0,1-1.245-.605,2.278,2.278,0,0,1-.651-1.27l-.018-.264a2.233,2.233,0,0,1,.616-1.5,2.183,2.183,0,0,1,1.594-.7,1.988,1.988,0,0,1,1.5.7,2.434,2.434,0,0,1,.605,1.588l0,.115Z" transform="translate(0.934 0.941)" fill="#fff" stroke="#fff" stroke-width="0.5"/><path d="M-216.979,907.675l-.128-.327h-6l.059.569c.238,2.293.454,4.36.7,6.724l.046.448.449.014c1.3.043,2.022.062,3,.062.872,0,1.947-.014,3.841-.036l.751-.009-.277-.7C-215.307,912.466-216.2,909.654-216.979,907.675Zm-4.383,6.412c-.208-1.981-.4-3.786-.6-5.706h4.142c.644,1.686,1.375,3.915,2.055,5.724-1.444.018-2.347.028-3.087.028C-219.687,914.133-220.349,914.119-221.361,914.087Z" transform="translate(1.021 0.422)" fill="#fff" stroke="#fff" stroke-width="0.5"/><path d="M-209.718,920.064c0-1.049.045-2.171.045-3.312a22.442,22.442,0,0,0-.247-3.66l-.509.085.509-.085a11.741,11.741,0,0,0-.353-1.53,9.081,9.081,0,0,0-3.875-4.983,11.366,11.366,0,0,0-4.983-1.683h3.177v-9.992l-.456-.055a48.569,48.569,0,0,0-5.809-.3c-2.151,0-4.248.081-6.318.081h-.62l-.155.185c-.7.83-1.281,1.518-1.788,2.122-2.12.119-4.057.219-6.244.339l-.488.027v7.614a7.6,7.6,0,0,0-2.659,1.028,8.772,8.772,0,0,0-3.182,3.894,10.99,10.99,0,0,1-7.274,6.339,3.943,3.943,0,0,0-2.618,2.595,10.583,10.583,0,0,0-.526,3.583c0,.189,0,.374.008.552a28.605,28.605,0,0,0,.428,3.991,5.944,5.944,0,0,0,.2,1.016,1.683,1.683,0,0,0,.787.9,2.265,2.265,0,0,0,.829.226c.443.057.958.085,1.369.141a2.814,2.814,0,0,1,.487.1l.084.035a9.467,9.467,0,0,0,2.513,2.847,5.625,5.625,0,0,0,3.3,1.134,5.863,5.863,0,0,0,3.206-1.023,11.549,11.549,0,0,0,2.97-2.989h10.485a14.42,14.42,0,0,0,2.866,2.928,5.224,5.224,0,0,0,3.056,1.1,5.382,5.382,0,0,0,3.028-1.044,14.871,14.871,0,0,0,2.921-2.784c1.718-.219,3.381-.439,5.282-.7h0a.52.52,0,0,0,.31-.162.522.522,0,0,0,.12-.2l.035-.161c.023-.165.034-.4.045-.719.032-.959.039-2.636.039-4.17,0-1.471-.006-2.809-.006-3.228Zm-.685,7.7h0Zm-5.673.747-.13.158a14.247,14.247,0,0,1-2.842,2.745,4.352,4.352,0,0,1-2.448.867,4.2,4.2,0,0,1-2.455-.9,13.8,13.8,0,0,1-2.808-2.917l-.155-.2h-11.517l-.154.221a10.746,10.746,0,0,1-2.852,2.935,4.823,4.823,0,0,1-2.643.856,4.6,4.6,0,0,1-2.7-.939,8.469,8.469,0,0,1-2.258-2.581.943.943,0,0,0-.4-.355,2.7,2.7,0,0,0-.771-.215c-.408-.063-.856-.092-1.237-.13-.189-.02-.361-.041-.491-.066l-.155-.037-.041-.015-.009-.005c-.249-.155-.279-.217-.339-.359a5.753,5.753,0,0,1-.155-.836,27.858,27.858,0,0,1-.414-3.848c0-.169-.007-.345-.007-.524a9.572,9.572,0,0,1,.462-3.223,2.9,2.9,0,0,1,1.933-1.962,12.045,12.045,0,0,0,7.931-6.9,7.738,7.738,0,0,1,2.8-3.454,7.359,7.359,0,0,1,4.071-1.067,12.628,12.628,0,0,1,1.284.068h0c.763.074,1.526.1,2.284.1,1.276,0,2.54-.065,3.779-.065h.494l.022-.494c.011-.239.022-.484.022-.746v-.516H-236.8V898.28c2.061-.113,3.93-.21,5.979-.324l.223-.012.144-.172c.5-.594,1.082-1.284,1.777-2.108h.139c2.1,0,4.194-.079,6.318-.079a49.056,49.056,0,0,1,5.232.248v8.032h-9.152v.516c0,.321,0,.635-.01.934l-.018.534h.534c1.206,0,2.412-.005,3.615-.005q.9,0,1.8.005a10.443,10.443,0,0,1,5.508,1.6,8.04,8.04,0,0,1,3.443,4.414,10.8,10.8,0,0,1,.323,1.4h0a21.514,21.514,0,0,1,.232,3.49c0,1.116-.041,2.234-.045,3.306v.082c0,.427.006,1.759.006,3.228,0,1.14,0,2.362-.02,3.3-.007.467-.018.863-.031,1.133v.018c-1.806.245-3.414.458-5.077.668Z" transform="translate(0 0)" fill="#fff" stroke="#fff" stroke-width="0.5"/><path d="M-232.127,907.85c-.207,2.409-.382,4.568-.578,6.88l-.048.56h4.776v-7.912h-4.11Zm3.117,6.407h-2.62c.164-1.951.318-3.825.491-5.846h2.129Z" transform="translate(0.703 0.422)" fill="#fff" stroke="#fff" stroke-width="0.5"/><path d="M-238.853,907.379l-.259.013-.144.216c-1.621,2.44-3.46,4.509-4.213,7.569l-.157.64h9.782l.027-.488c.155-2.738.279-5.011.434-7.684l.034-.578-.578.032C-235.964,907.214-237.462,907.307-238.853,907.379Zm.309,1.017c1.186-.063,2.476-.141,4.1-.232-.13,2.264-.243,4.3-.374,6.62h-7.455C-241.535,912.426-240.046,910.61-238.544,908.4Z" transform="translate(0.345 0.412)" fill="#fff" stroke="#fff" stroke-width="0.5"/><path d="M-223.858,915.045l-.026-.5c-.114-2.254-.226-4.3-.351-6.694l-.024-.461-.46-.029c-.992-.061-1.51-.093-2.265-.134l-.545-.03v8.165l.563-.05c.929-.083,1.63-.145,2.61-.227Zm-1.083-.944-1.556.134v-5.945l1.254.075C-225.137,910.388-225.038,912.192-224.94,914.1Z" transform="translate(0.875 0.417)" fill="#fff" stroke="#fff" stroke-width="0.5"/></g></svg>