<svg xmlns="http://www.w3.org/2000/svg" width="38.289" height="40.848" viewBox="0 0 38.289 40.848"><path d="M-479.412,931.238l-18.546-8.953a.6.6,0,0,0-.521,0l-18.546,8.953a.6.6,0,0,0-.338.539V953.52a.6.6,0,0,0,.338.539l18.546,8.954a.6.6,0,0,0,.26.059.606.606,0,0,0,.261-.059l18.546-8.954a.6.6,0,0,0,.337-.539V931.776A.6.6,0,0,0-479.412,931.238Zm-18.807-7.75,17.171,8.289-4.977,2.4a.611.611,0,0,0-.1-.063l-17.054-8.233Zm-6.313,3.072,17.145,8.277-3.511,1.7-17.138-8.274Zm17.546,9.412v6.266l-3.28,1.584v-6.267Zm6.715,17.174-17.35,8.375V941.106l4.139-2a.6.6,0,0,0,.279-.8.6.6,0,0,0-.8-.279l-4.216,2.036-1.659-.8a.6.6,0,0,0-.8.279.6.6,0,0,0,.278.8l1.581.764V961.52l-17.349-8.375V932.73l13.211,6.378a.588.588,0,0,0,.26.06.6.6,0,0,0,.539-.338.6.6,0,0,0-.278-.8l-12.954-6.254,5.944-2.87,17.974,8.678.008.01v7.18a.6.6,0,0,0,.281.507.6.6,0,0,0,.318.091.606.606,0,0,0,.26-.059l4.477-2.161a.6.6,0,0,0,.338-.539v-7.22l5.518-2.664v20.415Z" transform="translate(517.364 -922.225)" fill="#fff"/></svg>