<svg xmlns="http://www.w3.org/2000/svg" width="41.894" height="43.34" viewBox="0 0 41.894 43.34"><g transform="translate(143.922 -798.934)"><path d="M-102.1,804.635a.724.724,0,0,0-.41-.37l-14.983-5.289a.723.723,0,0,0-.922.441l-3.4,9.631h-1.488v-2.456a2.164,2.164,0,0,0-.846-1.716,2.167,2.167,0,0,0-1.875-.379l-17.356,4.575v.014a.711.711,0,0,0-.538.684v30.338a2.166,2.166,0,0,0,2.166,2.167h20.225a2.167,2.167,0,0,0,2.167-2.167v-6.554l5.792,2.044a.723.723,0,0,0,.922-.441l10.58-29.969A.723.723,0,0,0-102.1,804.635Zm-23.56,1.255a.721.721,0,0,1,.625.125.723.723,0,0,1,.282.573v2.459H-137.63Zm4.852,34.217a.723.723,0,0,1-.723.723h-20.225a.723.723,0,0,1-.722-.723V810.492h20.947a.723.723,0,0,1,.723.723Zm5.937-26.865.925-.439.441.921-3.51,9.933a.723.723,0,0,0,.03.553l.752,1.573-.233.66-1.432-1.484a.719.719,0,0,0-.609-.216l-.856.108v-.969l.616-.294a.72.72,0,0,0,.37-.41l1.446-4.086Zm1.362,4.822,1.467,2.356-.25.71-1.755-1.536Zm-5.854,3.565v-1.984l.71-.029Zm1.228-3.481-1.228.05v-.961l1.768-.617ZM-113.771,834l-5.592-1.974v-5.715l.677-.085,2,2.065a.723.723,0,0,0,.52.216.63.63,0,0,0,.153-.016.725.725,0,0,0,.528-.466l.722-2.043a.719.719,0,0,0-.029-.551l-.755-1.572.988-2.8,2.122,1.859a.72.72,0,0,0,.477.179.721.721,0,0,0,.183-.024.725.725,0,0,0,.5-.458l.722-2.043a.721.721,0,0,0-.068-.622l-2.261-3.632.847-2.4a.723.723,0,0,0-.03-.553l-.881-1.842a.723.723,0,0,0-.964-.341l-1.844.882a.726.726,0,0,0-.369.41l-.847,2.4-2.384.831v-4.492a2.163,2.163,0,0,0-1.036-1.84l1.181-3.348.265-.751,1.662-4.694,13.621,4.808Z" transform="translate(0 0)" fill="#fff"/><path d="M-112.128,808.869l.48-1.363,1.238.438-.48,1.362Z" transform="translate(4.056 1.094)" fill="#fff"/><path d="M-120.915,805.767l.481-1.362,1.238.436-.481,1.362Z" transform="translate(2.935 0.698)" fill="#fff"/><path d="M-114.325,808.093l.48-1.362,1.239.438-.481,1.362Z" transform="translate(3.776 0.995)" fill="#fff"/><path d="M-118.718,806.542l.481-1.362,1.237.438-.48,1.362Z" transform="translate(3.216 0.797)" fill="#fff"/><path d="M-116.522,807.317l.481-1.362,1.238.438-.48,1.362Z" transform="translate(3.496 0.896)" fill="#fff"/><path d="M-132.511,811.746a7.223,7.223,0,0,0-7.223,7.223,7.223,7.223,0,0,0,7.223,7.223,7.223,7.223,0,0,0,7.223-7.223A7.231,7.231,0,0,0-132.511,811.746Zm5.216,4.754-.986-.216c-.433-.1-.866-.171-1.3-.237-.065-.437-.144-.874-.237-1.3l-.218-.986A5.8,5.8,0,0,1-127.294,816.5Zm-10.994,2.469a5.649,5.649,0,0,1,.072-.882l1.786-.4c.274-.061.549-.112.827-.159a19.754,19.754,0,0,0,0,2.876c-.277-.047-.553-.1-.827-.159l-1.786-.4A5.65,5.65,0,0,1-138.288,818.969Zm4.151-1.627a18.246,18.246,0,0,1,3.254,0,18.248,18.248,0,0,1,0,3.255,18.235,18.235,0,0,1-3.254,0A18.251,18.251,0,0,1-134.138,817.342Zm4.718.189c.277.047.554.1.827.159l1.787.4a5.268,5.268,0,0,1,0,1.765l-1.787.4c-.273.061-.549.112-.827.16A19.453,19.453,0,0,0-129.42,817.532Zm-2.209-4.268.4,1.787c.061.273.112.549.16.825a19.757,19.757,0,0,0-2.878,0c.048-.276.1-.552.16-.825l.4-1.787A5.267,5.267,0,0,1-131.629,813.264Zm-3.351.488-.218.986c-.095.433-.17.866-.237,1.3q-.656.1-1.3.236l-.986.218a5.8,5.8,0,0,1,2.745-2.741Zm-2.746,7.686.986.217c.434.095.867.171,1.3.237q.1.656.237,1.3l.217.986a5.813,5.813,0,0,1-2.745-2.741Zm4.334,3.234-.4-1.787c-.062-.273-.113-.549-.16-.825.478.035.958.059,1.439.059s.96-.024,1.439-.059c-.048.276-.1.553-.16.825l-.4,1.787A5.26,5.26,0,0,1-133.391,824.672Zm3.351-.488.218-.986c.1-.433.17-.866.237-1.3.438-.065.874-.144,1.3-.236l.985-.218a5.8,5.8,0,0,1-2.745,2.746Z" transform="translate(0.534 1.635)" fill="#fff"/><path d="M-138.452,829.683H-126.9v1.444h-11.557Z" transform="translate(0.698 3.923)" fill="#fff"/><path d="M-137.171,832.245h8.668v1.446h-8.668Z" transform="translate(0.861 4.25)" fill="#fff"/><path d="M-133.968,827.121h1.444v1.444h-1.444Z" transform="translate(1.27 3.596)" fill="#fff"/><path d="M-136.531,827.121h1.446v1.444h-1.446Z" transform="translate(0.943 3.596)" fill="#fff"/><path d="M-131.406,827.121h1.444v1.444h-1.444Z" transform="translate(1.597 3.596)" fill="#fff"/></g></svg>