<svg xmlns="http://www.w3.org/2000/svg" width="39.193" height="39.193" viewBox="0 0 39.193 39.193"><g transform="translate(498.331 -715.326)"><circle cx="0.653" cy="0.653" r="0.653" transform="translate(-495.718 725.778)" fill="#fff"/><circle cx="0.653" cy="0.653" r="0.653" transform="translate(-493.105 725.778)" fill="#fff"/><circle cx="0.653" cy="0.653" r="0.653" transform="translate(-490.492 725.778)" fill="#fff"/><path d="M-449.057,732.191h2.612a.653.653,0,0,0,.654-.653.653.653,0,0,0-.654-.653h-2.612a.653.653,0,0,0-.654.653A.653.653,0,0,0-449.057,732.191Z" transform="translate(-15.959 -5.107)" fill="#fff"/><path d="M-497.677,745.285a.653.653,0,0,0,.653-.653v-11.1h8.492a.653.653,0,0,0,.654-.653.654.654,0,0,0-.654-.654h-8.492V728.3h8.492a.654.654,0,0,0,.654-.654.653.653,0,0,0-.654-.653h-9.145a.653.653,0,0,0-.654.653v16.984A.653.653,0,0,0-497.677,745.285Z" transform="translate(0 -3.83)" fill="#fff"/><path d="M-453.407,726.995h-5.226a.653.653,0,0,0-.654.653.654.654,0,0,0,.654.654h4.572v3.919h-4.572a.654.654,0,0,0-.654.654.653.653,0,0,0,.654.653h4.572v23.516h-24.169a.654.654,0,0,0-.654.654.653.653,0,0,0,.654.653h24.822a.653.653,0,0,0,.653-.653V727.648A.653.653,0,0,0-453.407,726.995Z" transform="translate(-6.384 -3.83)" fill="#fff"/><path d="M-476.938,730.261a.653.653,0,0,0,.654.653h2.612a.653.653,0,0,0,.654-.653v-2.613a.653.653,0,0,0-.654-.653h-2.612a.653.653,0,0,0-.654.653Zm1.307-1.96h1.307v1.307h-1.307Z" transform="translate(-7.022 -3.83)" fill="#fff"/><path d="M-469.159,730.261a.653.653,0,0,0,.654.653h2.612a.653.653,0,0,0,.654-.653v-2.613a.653.653,0,0,0-.654-.653h-2.612a.653.653,0,0,0-.654.653Zm1.307-1.96h1.307v1.307h-1.307Z" transform="translate(-9.575 -3.83)" fill="#fff"/><path d="M-461.379,730.261a.653.653,0,0,0,.653.653h2.612a.653.653,0,0,0,.654-.653v-2.613a.653.653,0,0,0-.654-.653h-2.612a.653.653,0,0,0-.653.653Zm1.306-1.96h1.307v1.307h-1.307Z" transform="translate(-12.129 -3.83)" fill="#fff"/><path d="M-476.284,723.135h2.612a.653.653,0,0,0,.654-.653v-2.613a.653.653,0,0,0-.654-.653h-2.612a.653.653,0,0,0-.654.653v2.613A.653.653,0,0,0-476.284,723.135Zm.653-2.612h1.307v1.306h-1.307Z" transform="translate(-7.022 -1.277)" fill="#fff"/><path d="M-468.505,723.135h2.612a.653.653,0,0,0,.654-.653v-2.613a.653.653,0,0,0-.654-.653h-2.612a.653.653,0,0,0-.654.653v2.613A.653.653,0,0,0-468.505,723.135Zm.653-2.612h1.307v1.306h-1.307Z" transform="translate(-9.575 -1.277)" fill="#fff"/><path d="M-460.726,723.135h2.612a.653.653,0,0,0,.654-.653v-2.613a.653.653,0,0,0-.654-.653h-2.612a.653.653,0,0,0-.653.653v2.613A.653.653,0,0,0-460.726,723.135Zm.653-2.612h1.307v1.306h-1.307Z" transform="translate(-12.129 -1.277)" fill="#fff"/><path d="M-476.938,745.819a.653.653,0,0,0,.654.654h2.612a.654.654,0,0,0,.654-.654v-2.612a.654.654,0,0,0-.654-.654h-2.612a.654.654,0,0,0-.654.654Zm1.307-1.959h1.307v1.306h-1.307Z" transform="translate(-7.022 -8.937)" fill="#fff"/><path d="M-469.159,745.819a.654.654,0,0,0,.654.654h2.612a.654.654,0,0,0,.654-.654v-2.612a.654.654,0,0,0-.654-.654h-2.612a.654.654,0,0,0-.654.654Zm1.307-1.959h1.307v1.306h-1.307Z" transform="translate(-9.575 -8.937)" fill="#fff"/><path d="M-461.379,745.819a.653.653,0,0,0,.653.654h2.612a.653.653,0,0,0,.654-.654v-2.612a.653.653,0,0,0-.654-.654h-2.612a.653.653,0,0,0-.653.654Zm1.306-1.959h1.307v1.306h-1.307Z" transform="translate(-12.129 -8.937)" fill="#fff"/><path d="M-476.938,738.04a.653.653,0,0,0,.654.654h2.612a.654.654,0,0,0,.654-.654v-2.612a.654.654,0,0,0-.654-.654h-2.612a.654.654,0,0,0-.654.654Zm1.307-1.96h1.307v1.307h-1.307Z" transform="translate(-7.022 -6.383)" fill="#fff"/><path d="M-469.159,738.04a.654.654,0,0,0,.654.654h2.612a.654.654,0,0,0,.654-.654v-2.612a.654.654,0,0,0-.654-.654h-2.612a.654.654,0,0,0-.654.654Zm1.307-1.96h1.307v1.307h-1.307Z" transform="translate(-9.575 -6.383)" fill="#fff"/><path d="M-461.379,738.04a.653.653,0,0,0,.653.654h2.612a.653.653,0,0,0,.654-.654v-2.612a.654.654,0,0,0-.654-.654h-2.612a.653.653,0,0,0-.653.654Zm1.306-1.96h1.307v1.307h-1.307Z" transform="translate(-12.129 -6.383)" fill="#fff"/><path d="M-473.048,766.544a.653.653,0,0,0,.653.654h17.637a.653.653,0,0,0,.653-.654.653.653,0,0,0-.653-.653H-472.4A.653.653,0,0,0-473.048,766.544Z" transform="translate(-8.299 -16.597)" fill="#fff"/><path d="M-480.174,740.488a.653.653,0,0,0,.653-.653v-23.2h16.984v27.435h-4.573V739.5a.653.653,0,0,0-.653-.653h-6.532a.653.653,0,0,0-.654.653v4.573h-1.691a.653.653,0,0,0-.654.653.654.654,0,0,0,.654.654h16.062a.653.653,0,0,1,.653.653v.653h-16.331a.653.653,0,0,0-.653.654.653.653,0,0,0,.653.653h16.984a.653.653,0,0,0,.653-.653v-1.307a1.96,1.96,0,0,0-1.96-1.96h-.654V715.98a.653.653,0,0,0-.653-.654h-18.29a.653.653,0,0,0-.653.654v23.856A.653.653,0,0,0-480.174,740.488Zm6.532-.34h1.96v3.92h-1.96Zm3.266,3.92v-3.92h1.959v3.92Z" transform="translate(-5.746)" fill="#fff"/><path d="M-491.145,752.277a7.186,7.186,0,0,0-7.186,7.186,7.185,7.185,0,0,0,7.186,7.185,7.185,7.185,0,0,0,7.185-7.185,7.186,7.186,0,0,0-7.185-7.186Zm0,13.065a5.879,5.879,0,0,1-5.879-5.879,5.879,5.879,0,0,1,5.879-5.879,5.879,5.879,0,0,1,5.879,5.879A5.879,5.879,0,0,1-491.145,765.341Z" transform="translate(0 -12.129)" fill="#fff"/><path d="M-486.709,759.24l-4.115,3.527-1.529-1.535a.656.656,0,0,0-.928,0,.656.656,0,0,0,0,.928h0l1.96,1.96a.65.65,0,0,0,.464.189.651.651,0,0,0,.425-.156l4.573-3.919a.654.654,0,0,0,.072-.922A.653.653,0,0,0-486.709,759.24Z" transform="translate(-1.595 -14.363)" fill="#fff"/></g></svg>