<svg id="Group_778" data-name="Group 778" xmlns="http://www.w3.org/2000/svg" width="88.262" height="87.808" viewBox="0 0 88.262 87.808">
  <path id="Path_178" data-name="Path 178" d="M-85.764,295.885a7.694,7.694,0,0,1-1.244-.782c-1.861-1.821-3.715-3.649-5.51-5.532a1.918,1.918,0,0,1-.468-1.409c3.472-23.216,15.794-39.965,36.817-50.379a3.787,3.787,0,0,1,3.932.117A41.763,41.763,0,0,1-34.8,255.912a2.355,2.355,0,0,1,.036,2.29c-8.22,17.376-21.274,29.28-39.743,34.967C-78.2,294.305-82.024,294.994-85.764,295.885Zm39-40.1a6.546,6.546,0,0,0-6.75-6.467,6.613,6.613,0,0,0-6.449,6.794,6.587,6.587,0,0,0,6.925,6.443A6.5,6.5,0,0,0-46.767,255.78Z" transform="translate(116.505 -232.076)" fill="#fff"/>
  <path id="Path_179" data-name="Path 179" d="M-65.116,265.078a29.144,29.144,0,0,1,1.833,5.293,4.478,4.478,0,0,1-1.1,3.329c-5.753,5.926-11.625,11.736-17.5,17.549a3.905,3.905,0,0,1-4.676.619,4.061,4.061,0,0,1-1.9-4.708c.549-2.629,1.14-5.251,1.711-7.876.434-2,.884-4,1.287-6.012a1.705,1.705,0,0,1,1.542-1.56,70.4,70.4,0,0,0,17.621-6.157C-65.971,265.4-65.629,265.285-65.116,265.078Z" transform="translate(120.881 -204.568)" fill="#fff"/>
  <path id="Path_180" data-name="Path 180" d="M-78.409,251.381c-1.319,3.176-2.738,6.191-3.829,9.319-1.138,3.267-1.988,6.636-2.9,9.979a1.61,1.61,0,0,1-1.373,1.4c-4.372.931-8.718,1.97-13.084,2.925a3.856,3.856,0,0,1-4.658-1.916,3.89,3.89,0,0,1,.852-4.981q8.408-8.459,16.861-16.878a4.429,4.429,0,0,1,4.909-1.1C-80.528,250.511-79.448,250.975-78.409,251.381Z" transform="translate(104.811 -219.672)" fill="#fff"/>
  <path id="Path_181" data-name="Path 181" d="M-54.2,253.433a57.761,57.761,0,0,0-16.244-15.9c5.82-1.357,11.35-2.909,17.149-2.862,2.312.018,3.047.679,2.607,2.909C-51.738,242.889-53.015,248.152-54.2,253.433Z" transform="translate(138.83 -234.669)" fill="#fff"/>
  <path id="Path_182" data-name="Path 182" d="M-98.08,281.07c-1.234-.284-1.753-.911-1.377-2.113a13.633,13.633,0,0,1,1.6-3.749c2.022-2.911,4.131-5.775,6.4-8.5,1.3-1.564,2.46-2.048,3.777.3a7.255,7.255,0,0,0,2.257,2.111c1.584,1.106,1.759,1.669.47,3.14a32.781,32.781,0,0,1-8.927,6.935C-95.223,279.934-96.679,280.451-98.08,281.07Z" transform="translate(109.991 -204.258)" fill="#fff"/>
</svg>
