<svg id="Group_774" data-name="Group 774" xmlns="http://www.w3.org/2000/svg" width="63.891" height="47.13" viewBox="0 0 63.891 47.13">
  <path id="Path_161" data-name="Path 161" d="M-353.67-125.043h-4.269v-3.592h-1.175q-13.628,0-27.255,0c-2.528,0-3.567-1.048-3.568-3.6q0-7.812,0-15.627v-1.051h.991q15.9,0,31.8,0c2.411,0,3.478,1.081,3.479,3.505q0,9.675,0,19.352Z" transform="translate(417.56 172.174)" fill="#f88b48"/>
  <path id="Path_162" data-name="Path 162" d="M-389.7-131.286h-21.035v7.209h-4.331v-31.86c0-.212,0-.424.006-.635a2.179,2.179,0,0,1,2.134-2.251,2.164,2.164,0,0,1,2.143,2.322c.012,2.784.033,5.569-.015,8.352a1.19,1.19,0,0,0,.878,1.326c6.486,2.654,12.952,5.351,19.434,8.009a1.065,1.065,0,0,1,.8,1.177C-389.73-135.558-389.7-133.476-389.7-131.286Z" transform="translate(415.067 171.19)" fill="#f88b48"/>
  <path id="Path_163" data-name="Path 163" d="M-375.238-170.072c2.48,0,4.96-.005,7.441,0,1.475,0,1.97.494,1.972,1.953q.008,5.172,0,10.344c0,1.476-.489,1.97-1.958,1.972q-7.44.008-14.88,0c-1.463,0-1.98-.512-1.982-1.956q-.01-5.171,0-10.344c0-1.452.512-1.963,1.968-1.968C-380.2-170.078-377.718-170.072-375.238-170.072Zm1.815,6.538c.333,1.076.561,1.909.851,2.719.265.742.826.9,1.265.273a3.957,3.957,0,0,1,4.058-1.882c.044.005.1-.057.181-.109v-1.074c-1.722-.2-3.4-.446-4.532,1.5-.334-1.122-.567-1.994-.86-2.846-.174-.507-.12-1.365-.86-1.269-.375.049-.758.752-.963,1.234-.562,1.319-1.031,2.678-1.614,4.227-.119-.362-.179-.494-.206-.632-.38-2.048-.733-4.1-1.154-6.14-.073-.351-.431-.643-.657-.962-.273.27-.664.494-.8.821a24.02,24.02,0,0,0-1.043,3.086,1.033,1.033,0,0,1-1.281.9c-.715-.054-1.436-.011-2.168-.011v1.318c1.182,0,2.3.053,3.411-.033a1.4,1.4,0,0,0,.895-.7,13.961,13.961,0,0,0,.707-1.963c.112.417.169.58.2.749.344,1.807.653,3.623,1.045,5.42.1.476.387,1.2.716,1.283.754.181.8-.657.995-1.151C-374.634-160.277-374.082-161.792-373.424-163.534Z" transform="translate(418.085 170.074)" fill="#f88b48"/>
  <path id="Path_164" data-name="Path 164" d="M-391.024-141.66a4.133,4.133,0,0,1-.513-.131c-3.371-1.4-6.74-2.806-10.2-4.25a6.423,6.423,0,0,1,2.824-3.317,7.316,7.316,0,0,1,7.434-.155.837.837,0,0,1,.44.566C-391.014-146.538-391.024-144.128-391.024-141.66Z" transform="translate(416.389 172.021)" fill="#f88b48"/>
  <path id="Path_165" data-name="Path 165" d="M-399.934-151.644a4.266,4.266,0,0,1-4.344,4.274,4.26,4.26,0,0,1-4.2-4.321,4.3,4.3,0,0,1,4.256-4.292A4.306,4.306,0,0,1-399.934-151.644Z" transform="translate(415.72 171.472)" fill="#f88b48"/>
</svg>
