<svg xmlns="http://www.w3.org/2000/svg" width="16.958" height="16.957" viewBox="0 0 16.958 16.957">
  <g id="Ellipse_2_copy_6" data-name="Ellipse 2 copy 6" transform="translate(2 2)">
    <g id="Ellipse_2_copy_6-2" data-name="Ellipse 2 copy 6" fill="#949494" stroke="#fff" stroke-width="3">
      <circle cx="6.479" cy="6.479" r="6.479" stroke="none"/>
      <circle cx="6.479" cy="6.479" r="4.979" fill="none"/>
    </g>
    <g id="Stroke_Effect" data-name="Stroke Effect" fill="none" stroke-linejoin="round">
      <path d="M6.479,0A6.479,6.479,0,1,1,0,6.479,6.479,6.479,0,0,1,6.479,0Z" stroke="none"/>
      <path d="M 6.478766918182373 -1.9073486328125e-06 C 2.900656700134277 -1.9073486328125e-06 -2.86102294921875e-06 2.900717735290527 -2.86102294921875e-06 6.478647708892822 C -2.86102294921875e-06 10.05705738067627 2.900656700134277 12.95729732513428 6.478766918182373 12.95729732513428 C 10.05687713623047 12.95729732513428 12.9575366973877 10.05705738067627 12.9575366973877 6.478647708892822 C 12.9575366973877 2.900717735290527 10.05687713623047 -1.9073486328125e-06 6.478766918182373 -1.9073486328125e-06 M 6.478766918182373 -2.000001907348633 C 11.15397644042969 -2.000001907348633 14.9575366973877 1.803507804870605 14.9575366973877 6.478647708892822 C 14.9575366973877 11.15378761291504 11.15397644042969 14.95729827880859 6.478766918182373 14.95729827880859 C 1.803556442260742 14.95729827880859 -2.000002861022949 11.15378761291504 -2.000002861022949 6.478647708892822 C -2.000002861022949 1.803507804870605 1.803556442260742 -2.000001907348633 6.478766918182373 -2.000001907348633 Z" stroke="none" fill="#949494"/>
    </g>
  </g>
</svg>
