<svg xmlns="http://www.w3.org/2000/svg" width="16.958" height="16.958" viewBox="0 0 16.958 16.958">
  <g id="Ellipse_2_copy_4" data-name="Ellipse 2 copy 4" transform="translate(2 2)">
    <g id="Ellipse_2_copy_4-2" data-name="Ellipse 2 copy 4" transform="translate(0 0)" fill="#009ddf" stroke="#fff" stroke-width="3">
      <circle cx="6.479" cy="6.479" r="6.479" stroke="none"/>
      <circle cx="6.479" cy="6.479" r="4.979" fill="none"/>
    </g>
    <g id="Stroke_Effect" data-name="Stroke Effect" fill="none" stroke-linejoin="round">
      <path d="M6.479,0A6.479,6.479,0,1,1,0,6.479,6.479,6.479,0,0,1,6.479,0Z" stroke="none"/>
      <path d="M 6.478766918182373 -3.814697265625e-06 C 2.900656700134277 -3.814697265625e-06 -2.86102294921875e-06 2.900716781616211 -2.86102294921875e-06 6.479126453399658 C -2.86102294921875e-06 10.05705642700195 2.900656700134277 12.95777702331543 6.478766918182373 12.95777702331543 C 10.05687713623047 12.95777702331543 12.9575366973877 10.05705642700195 12.9575366973877 6.479126453399658 C 12.9575366973877 2.900716781616211 10.05687713623047 -3.814697265625e-06 6.478766918182373 -3.814697265625e-06 M 6.478766918182373 -2.000003814697266 C 11.15397644042969 -2.000003814697266 14.9575366973877 1.803716659545898 14.9575366973877 6.479126453399658 C 14.9575366973877 11.15426635742188 11.15397644042969 14.95777702331543 6.478766918182373 14.95777702331543 C 1.803556442260742 14.95777702331543 -2.000002861022949 11.15426635742188 -2.000002861022949 6.479126453399658 C -2.000002861022949 1.803716659545898 1.803556442260742 -2.000003814697266 6.478766918182373 -2.000003814697266 Z" stroke="none" fill="#009ddf"/>
    </g>
  </g>
</svg>
