<svg xmlns="http://www.w3.org/2000/svg" width="550.048" height="137.139" viewBox="0 0 550.048 137.139"><g transform="translate(-20.921 -38.953)"><g transform="translate(164.715 65.977)"><path d="M198.488,108.374a25.826,25.826,0,0,1-10.413,1.985,24.379,24.379,0,0,1-9.131-1.648,21.05,21.05,0,0,1-7.083-4.582,20.7,20.7,0,0,1-4.613-6.961,23.03,23.03,0,0,1-1.648-8.795v-.122a21.852,21.852,0,0,1,13.436-20.368,22.681,22.681,0,0,1,8.978-1.74,31.412,31.412,0,0,1,5.221.4,24.922,24.922,0,0,1,4.367,1.13,20.408,20.408,0,0,1,3.787,1.832,28.329,28.329,0,0,1,3.42,2.5l-5.924,7.145a24.223,24.223,0,0,0-2.444-1.833,16.016,16.016,0,0,0-2.534-1.343,15,15,0,0,0-2.84-.855,17.151,17.151,0,0,0-3.359-.306,10.922,10.922,0,0,0-4.795,1.072,12.914,12.914,0,0,0-3.908,2.877,13.182,13.182,0,0,0-2.627,4.224,14.048,14.048,0,0,0-.946,5.171v.121a15.072,15.072,0,0,0,.946,5.419,12.859,12.859,0,0,0,2.687,4.314,12.236,12.236,0,0,0,4.092,2.847,13.086,13.086,0,0,0,5.222,1.009,14.8,14.8,0,0,0,8.855-2.583v-6.15H187.77V85.014h18.567v18.567A31.29,31.29,0,0,1,198.488,108.374Z" transform="translate(-165.6 -66.143)" fill="#fff"/><path d="M257.5,96.832a21.873,21.873,0,0,1-11.94,11.787,24.756,24.756,0,0,1-18.231,0,22.633,22.633,0,0,1-7.176-4.7,21.027,21.027,0,0,1-4.7-6.963,21.922,21.922,0,0,1-1.68-8.58v-.122a21.605,21.605,0,0,1,1.711-8.581,21.867,21.867,0,0,1,11.939-11.786,24.743,24.743,0,0,1,18.231,0,22.636,22.636,0,0,1,7.176,4.7,21.063,21.063,0,0,1,4.7,6.963,21.946,21.946,0,0,1,1.679,8.58v.122A21.615,21.615,0,0,1,257.5,96.832Zm-8.123-8.581a14.243,14.243,0,0,0-.947-5.191,12.807,12.807,0,0,0-6.809-7.176,12.531,12.531,0,0,0-5.191-1.069,12.794,12.794,0,0,0-5.222,1.039,11.933,11.933,0,0,0-4.03,2.87,13.5,13.5,0,0,0-2.627,4.246,13.993,13.993,0,0,0-.946,5.159v.122a14.231,14.231,0,0,0,.946,5.191,12.9,12.9,0,0,0,6.779,7.177,12.47,12.47,0,0,0,5.222,1.068,12.842,12.842,0,0,0,5.191-1.039,11.86,11.86,0,0,0,4.061-2.87,13.521,13.521,0,0,0,2.626-4.244,14,14,0,0,0,.947-5.161Z" transform="translate(-165.895 -66.143)" fill="#fff"/><path d="M319.813,109.631V81.721L307.782,99.981h-.244L295.628,81.9v27.727h-9.282V66.88h10.138L307.72,84.958,318.958,66.88H329.1v42.751Z" transform="translate(-166.338 -66.148)" fill="#fff"/><path d="M339.683,109.631V66.88h32.185v8.367h-22.9v8.673H369.12v8.368H348.965v8.978h23.209v8.367Z" transform="translate(-166.665 -66.148)" fill="#fff"/><path d="M418.6,96.684a19.908,19.908,0,0,1-4.672,6.779,22.1,22.1,0,0,1-7.207,4.519,24.864,24.864,0,0,1-9.191,1.649H380.853V66.88h16.673a25.312,25.312,0,0,1,9.191,1.618,21.721,21.721,0,0,1,7.207,4.489,20.007,20.007,0,0,1,4.672,6.748,21.259,21.259,0,0,1,1.649,8.4v.122A21.474,21.474,0,0,1,418.6,96.684Zm-8.184-8.428a13.929,13.929,0,0,0-.947-5.191,12.189,12.189,0,0,0-2.626-4.092,11.665,11.665,0,0,0-4.062-2.657,14.1,14.1,0,0,0-5.252-.947h-7.267v25.772h7.267a14.525,14.525,0,0,0,5.252-.915A11.285,11.285,0,0,0,406.84,97.6a12.327,12.327,0,0,0,2.626-4.031,13.629,13.629,0,0,0,.947-5.191Z" transform="translate(-166.916 -66.148)" fill="#fff"/><path d="M429.336,109.631V66.88h9.406v42.751Z" transform="translate(-167.213 -66.148)" fill="#fff"/><path d="M483.68,105.9a19.99,19.99,0,0,1-8.489,3.94,27.86,27.86,0,0,1-5.618.518,22.154,22.154,0,0,1-8.734-1.709A21.083,21.083,0,0,1,449.3,96.984a22.519,22.519,0,0,1-1.649-8.611v-.122A22.3,22.3,0,0,1,449.3,79.67a22.064,22.064,0,0,1,4.581-7.023,21.23,21.23,0,0,1,7.023-4.764,22.854,22.854,0,0,1,9.039-1.74,28.264,28.264,0,0,1,5.466.488,22.863,22.863,0,0,1,4.488,1.344,19.493,19.493,0,0,1,3.725,2.077,25.223,25.223,0,0,1,3.177,2.686l-5.985,6.9a22.678,22.678,0,0,0-5.1-3.541,12.982,12.982,0,0,0-5.833-1.283,11.92,11.92,0,0,0-4.977,1.039,11.787,11.787,0,0,0-3.939,2.87,13.382,13.382,0,0,0-2.565,4.246,14.417,14.417,0,0,0-.916,5.159v.122a14.663,14.663,0,0,0,.916,5.191,13.583,13.583,0,0,0,2.534,4.275,11.749,11.749,0,0,0,8.947,3.971,13.1,13.1,0,0,0,6.2-1.344,24.072,24.072,0,0,0,5.038-3.664l5.985,6.047A30.99,30.99,0,0,1,483.68,105.9Z" transform="translate(-167.325 -66.143)" fill="#fff"/><path d="M526.7,109.629l-3.909-9.589H504.712l-3.909,9.589h-9.588l18.321-43.057h8.673l18.322,43.057ZM513.751,77.871l-5.68,13.863H519.43Z" transform="translate(-167.591 -66.146)" fill="#fff"/><path d="M543.446,109.631V66.88h9.405v34.261h21.314v8.49Z" transform="translate(-167.911 -66.148)" fill="#fff"/></g><g transform="translate(164.052 116.549)"><path d="M197.553,153.518a11.61,11.61,0,0,1-3.215,4.153,14.484,14.484,0,0,1-4.925,2.564,21.375,21.375,0,0,1-6.341.886,28.324,28.324,0,0,1-9.589-1.679,25.4,25.4,0,0,1-8.55-5.16l5.558-6.658a27.874,27.874,0,0,0,6.016,3.787,16.089,16.089,0,0,0,6.748,1.4,8.219,8.219,0,0,0,4.55-1.069,3.362,3.362,0,0,0,1.618-2.962v-.122a3.7,3.7,0,0,0-.337-1.619,3.412,3.412,0,0,0-1.286-1.312,13.562,13.562,0,0,0-2.633-1.221q-1.685-.61-4.379-1.282a53.19,53.19,0,0,1-5.878-1.772,16.511,16.511,0,0,1-4.471-2.411,9.763,9.763,0,0,1-2.848-3.574,12.393,12.393,0,0,1-1.011-5.312v-.122a12.388,12.388,0,0,1,1.092-5.283,12.018,12.018,0,0,1,3.064-4.062,13.765,13.765,0,0,1,4.71-2.626,18.914,18.914,0,0,1,6.036-.917,25.547,25.547,0,0,1,8.642,1.406,25.044,25.044,0,0,1,7.236,4.03l-4.885,7.083a31.159,31.159,0,0,0-5.619-3.083,14.351,14.351,0,0,0-5.5-1.13,6.664,6.664,0,0,0-4.123,1.067,3.248,3.248,0,0,0-1.374,2.658v.122a3.843,3.843,0,0,0,.4,1.8,3.6,3.6,0,0,0,1.439,1.374,13.441,13.441,0,0,0,2.848,1.16q1.805.552,4.562,1.284a43.913,43.913,0,0,1,5.786,1.924,16.143,16.143,0,0,1,4.287,2.564,9.794,9.794,0,0,1,2.633,3.51,11.917,11.917,0,0,1,.89,4.825v.122A13.232,13.232,0,0,1,197.553,153.518Z" transform="translate(-164.933 -117.027)" fill="#fff"/><path d="M207.149,160.515V117.764h32.186v8.367h-22.9V134.8h20.154v8.368H216.432v8.978h23.207v8.367Z" transform="translate(-165.191 -117.03)" fill="#fff"/><path d="M273.939,160.515l-9.162-13.682h-7.39v13.682h-9.405V117.764h19.544q7.632,0,11.878,3.724t4.245,10.383v.122a13.413,13.413,0,0,1-2.534,8.459,14.69,14.69,0,0,1-6.626,4.795l10.443,15.268Zm.183-28.155a5.457,5.457,0,0,0-1.954-4.581,8.634,8.634,0,0,0-5.436-1.527h-9.344v12.274h9.527a7.809,7.809,0,0,0,5.343-1.648,5.581,5.581,0,0,0,1.864-4.4Z" transform="translate(-165.441 -117.03)" fill="#fff"/><path d="M313.158,160.82h-8.3l-17.284-43.056h10.382l11.176,30.108L320.3,117.764h10.139Z" transform="translate(-165.683 -117.03)" fill="#fff"/><path d="M337.772,160.515V117.764h9.405v42.751Z" transform="translate(-165.99 -117.03)" fill="#fff"/><path d="M392.117,156.784a19.984,19.984,0,0,1-8.49,3.94,27.8,27.8,0,0,1-5.618.518,22.167,22.167,0,0,1-8.734-1.708,21.086,21.086,0,0,1-11.543-11.666,22.533,22.533,0,0,1-1.648-8.61v-.122a22.312,22.312,0,0,1,1.648-8.581,22.056,22.056,0,0,1,4.581-7.023,21.246,21.246,0,0,1,7.024-4.765,22.872,22.872,0,0,1,9.039-1.74,28.172,28.172,0,0,1,5.465.489,22.78,22.78,0,0,1,4.489,1.344,19.468,19.468,0,0,1,3.725,2.076,25.31,25.31,0,0,1,3.176,2.687l-5.985,6.9a22.705,22.705,0,0,0-5.1-3.542,12.99,12.99,0,0,0-5.832-1.282,11.839,11.839,0,0,0-8.917,3.908,13.4,13.4,0,0,0-2.565,4.246,14.425,14.425,0,0,0-.915,5.16v.122a14.673,14.673,0,0,0,.915,5.191,13.6,13.6,0,0,0,2.535,4.275,11.752,11.752,0,0,0,8.947,3.97,13.092,13.092,0,0,0,6.2-1.343,24.124,24.124,0,0,0,5.039-3.664l5.984,6.046A30.973,30.973,0,0,1,392.117,156.784Z" transform="translate(-166.102 -117.026)" fill="#fff"/><path d="M403.289,160.515V117.764h32.186v8.367h-22.9V134.8h20.154v8.368H412.573v8.978H435.78v8.367Z" transform="translate(-166.391 -117.03)" fill="#fff"/><path d="M474.192,153.518a11.6,11.6,0,0,1-3.215,4.153,14.5,14.5,0,0,1-4.924,2.564,21.388,21.388,0,0,1-6.342.886,28.324,28.324,0,0,1-9.589-1.679,25.4,25.4,0,0,1-8.55-5.16l5.558-6.658a27.875,27.875,0,0,0,6.016,3.787,16.082,16.082,0,0,0,6.748,1.4,8.221,8.221,0,0,0,4.551-1.069,3.363,3.363,0,0,0,1.618-2.962v-.122a3.7,3.7,0,0,0-.337-1.619,3.419,3.419,0,0,0-1.286-1.312,13.518,13.518,0,0,0-2.634-1.221q-1.683-.61-4.377-1.282a53.24,53.24,0,0,1-5.88-1.772,16.519,16.519,0,0,1-4.469-2.411,9.741,9.741,0,0,1-2.848-3.574,12.393,12.393,0,0,1-1.01-5.312v-.122a12.388,12.388,0,0,1,1.091-5.283,12.006,12.006,0,0,1,3.064-4.062,13.765,13.765,0,0,1,4.71-2.626,18.91,18.91,0,0,1,6.036-.917,25.551,25.551,0,0,1,8.642,1.406,25.063,25.063,0,0,1,7.238,4.03l-4.887,7.083a31.117,31.117,0,0,0-5.618-3.083,14.355,14.355,0,0,0-5.5-1.13,6.663,6.663,0,0,0-4.123,1.067,3.251,3.251,0,0,0-1.373,2.658v.122a3.83,3.83,0,0,0,.4,1.8,3.589,3.589,0,0,0,1.439,1.374,13.418,13.418,0,0,0,2.847,1.16q1.807.552,4.562,1.284a43.984,43.984,0,0,1,5.787,1.924,16.175,16.175,0,0,1,4.286,2.564,9.8,9.8,0,0,1,2.633,3.51,11.936,11.936,0,0,1,.888,4.825v.122A13.219,13.219,0,0,1,474.192,153.518Z" transform="translate(-166.625 -117.027)" fill="#fff"/></g><path d="M108.017,144.574a72.074,72.074,0,0,0-6.555-11.988,181.259,181.259,0,0,0-14.22-18.927c-6.736-7.736-18.7-14.18-18.816-14.243,0,0-10.512-5.878-30.68-7.187-10.715-.695-15.526,0-15.526,0l.59.932s6.16,9.452,19.578,17.469c11.618,6.94,28.607,10.379,28.607,10.379s-18.48-1.351-33.333-9.7c-6.743-3.793-16.738-16.54-16.738-16.54a44.312,44.312,0,0,0,9.059,25.57c4.024,5.263,10.239,10.21,22.278,13.754,10.486,3.088,21.433,2.741,26.835,3.151,9.676.731,17.421,2.767,21.653,6.518a9.927,9.927,0,0,1,3.087,7.588l-.006,1.391h.018v17.188a.957.957,0,0,1-.957.956H71.64a.956.956,0,0,1-.956-.956V147.46a5.639,5.639,0,0,0-2.011-4.008,16.187,16.187,0,0,0-3.485-2.11v29.335a5.74,5.74,0,0,0,5.741,5.74H103.6a5.741,5.741,0,0,0,5.742-5.74V151.6A19.286,19.286,0,0,0,108.017,144.574Z" transform="translate(0 -0.324)" fill="#fff"/><path d="M66,70.8a71.974,71.974,0,0,0,6.554,11.988,181.093,181.093,0,0,0,14.22,18.928c6.736,7.736,18.7,14.179,18.816,14.243,0,0,10.512,5.878,30.68,7.186,10.715.7,15.526,0,15.526,0l-.59-.932s-6.16-9.452-19.578-17.469c-11.618-6.94-28.606-10.379-28.606-10.379s18.48,1.351,33.332,9.7c6.743,3.793,16.738,16.54,16.738,16.54a44.311,44.311,0,0,0-9.059-25.57c-4.023-5.264-10.238-10.21-22.278-13.754-10.486-3.088-21.432-2.742-26.835-3.152-9.675-.731-17.421-2.766-21.653-6.517a9.927,9.927,0,0,1-3.087-7.588l.006-1.392h-.018V45.449a.957.957,0,0,1,.957-.956h31.25a.957.957,0,0,1,.957.956V67.91a5.635,5.635,0,0,0,2.01,4.008,16.164,16.164,0,0,0,3.485,2.109V44.694a5.74,5.74,0,0,0-5.741-5.741H70.421a5.741,5.741,0,0,0-5.741,5.741V63.512l0,.262A19.27,19.27,0,0,0,66,70.8Z" transform="translate(-0.268)" fill="#fff"/></g></svg>