<svg xmlns="http://www.w3.org/2000/svg" xmlns:xlink="http://www.w3.org/1999/xlink" width="553.432" height="137.982" viewBox="0 0 553.432 137.982"><defs><linearGradient id="a" x1="0.5" y1="1" x2="0.5" gradientUnits="objectBoundingBox"><stop offset="0" stop-color="#009ddf"/><stop offset="1" stop-color="#77b850"/></linearGradient></defs><g transform="translate(-20.922 -38.953)"><path d="M198.69,108.634a25.985,25.985,0,0,1-10.477,2,24.529,24.529,0,0,1-9.187-1.658,21.18,21.18,0,0,1-7.127-4.61,20.826,20.826,0,0,1-4.641-7A23.173,23.173,0,0,1,165.6,88.51v-.123a21.986,21.986,0,0,1,13.519-20.493,22.821,22.821,0,0,1,9.033-1.751,31.6,31.6,0,0,1,5.253.4,25.076,25.076,0,0,1,4.394,1.137,20.534,20.534,0,0,1,3.81,1.843,28.5,28.5,0,0,1,3.441,2.52l-5.96,7.189a24.38,24.38,0,0,0-2.459-1.844,16.114,16.114,0,0,0-2.55-1.351,15.09,15.09,0,0,0-2.857-.86,17.257,17.257,0,0,0-3.38-.308,10.989,10.989,0,0,0-4.824,1.079,12.992,12.992,0,0,0-3.932,2.9,13.262,13.262,0,0,0-2.643,4.25,14.135,14.135,0,0,0-.952,5.2v.122a15.165,15.165,0,0,0,.952,5.452,12.938,12.938,0,0,0,2.7,4.341,12.311,12.311,0,0,0,4.117,2.865,13.167,13.167,0,0,0,5.254,1.015,14.891,14.891,0,0,0,8.91-2.6V93.3h-9.524V85.13h18.681v18.681A31.483,31.483,0,0,1,198.69,108.634Z" fill="#77b850"/><path d="M257.773,97.021a22.008,22.008,0,0,1-12.013,11.86,24.908,24.908,0,0,1-18.343,0,22.772,22.772,0,0,1-7.22-4.732,21.156,21.156,0,0,1-4.732-7.006,22.056,22.056,0,0,1-1.69-8.633v-.123a21.738,21.738,0,0,1,1.721-8.634,22,22,0,0,1,12.013-11.859,24.895,24.895,0,0,1,18.343,0,22.776,22.776,0,0,1,7.22,4.731,21.191,21.191,0,0,1,4.732,7.006,22.081,22.081,0,0,1,1.689,8.633v.123A21.748,21.748,0,0,1,257.773,97.021ZM249.6,88.387a14.33,14.33,0,0,0-.953-5.223,12.886,12.886,0,0,0-6.851-7.22,12.608,12.608,0,0,0-5.223-1.076,12.872,12.872,0,0,0-5.254,1.045,12.007,12.007,0,0,0-4.055,2.888,13.586,13.586,0,0,0-2.643,4.272,14.079,14.079,0,0,0-.952,5.191v.123a14.318,14.318,0,0,0,.952,5.223,12.98,12.98,0,0,0,6.821,7.221,12.547,12.547,0,0,0,5.254,1.075,12.921,12.921,0,0,0,5.223-1.045,11.933,11.933,0,0,0,4.086-2.888,13.6,13.6,0,0,0,2.642-4.27,14.091,14.091,0,0,0,.953-5.193Z" fill="#77b850"/><path d="M320.019,109.894V81.812l-12.105,18.373h-.246L295.685,82v27.9h-9.339V66.88h10.2l11.306,18.189L319.159,66.88h10.2v43.014Z" fill="#77b850"/><path d="M339.683,109.894V66.88h32.383V75.3H349.022v8.726H369.3v8.419H349.022v9.033h23.352v8.418Z" fill="#77b850"/><path d="M418.829,96.867a20.031,20.031,0,0,1-4.7,6.821,22.236,22.236,0,0,1-7.251,4.547,25.017,25.017,0,0,1-9.248,1.659H380.853V66.88h16.776a25.468,25.468,0,0,1,9.248,1.628,21.855,21.855,0,0,1,7.251,4.517,20.131,20.131,0,0,1,4.7,6.79,21.389,21.389,0,0,1,1.659,8.449v.123A21.606,21.606,0,0,1,418.829,96.867Zm-8.234-8.48a14.014,14.014,0,0,0-.953-5.223A12.264,12.264,0,0,0,407,79.047a11.737,11.737,0,0,0-4.087-2.673,14.183,14.183,0,0,0-5.284-.953h-7.312v25.931h7.312a14.614,14.614,0,0,0,5.284-.921A11.354,11.354,0,0,0,407,97.789a12.4,12.4,0,0,0,2.642-4.056,13.712,13.712,0,0,0,.953-5.223Z" fill="#77b850"/><path d="M429.336,109.894V66.88H438.8v43.014Z" fill="#77b850"/><path d="M483.9,106.146a20.111,20.111,0,0,1-8.541,3.964,28.032,28.032,0,0,1-5.653.521,22.29,22.29,0,0,1-8.788-1.72,21.212,21.212,0,0,1-11.613-11.737,22.658,22.658,0,0,1-1.659-8.664v-.123a22.437,22.437,0,0,1,1.659-8.634,22.2,22.2,0,0,1,4.609-7.066,21.36,21.36,0,0,1,7.066-4.793,23,23,0,0,1,9.1-1.751,28.44,28.44,0,0,1,5.5.491,23,23,0,0,1,4.516,1.352,19.617,19.617,0,0,1,3.748,2.09,25.38,25.38,0,0,1,3.2,2.7l-6.022,6.943a22.815,22.815,0,0,0-5.131-3.563,13.062,13.062,0,0,0-5.869-1.291,11.993,11.993,0,0,0-5.008,1.045,11.86,11.86,0,0,0-3.963,2.888,13.466,13.466,0,0,0-2.581,4.272,14.507,14.507,0,0,0-.922,5.191v.123a14.754,14.754,0,0,0,.922,5.223,13.668,13.668,0,0,0,2.55,4.3,11.821,11.821,0,0,0,9,3.995,13.177,13.177,0,0,0,6.238-1.352,24.221,24.221,0,0,0,5.069-3.687l6.022,6.084A31.176,31.176,0,0,1,483.9,106.146Z" fill="#77b850"/><path d="M526.917,109.894l-3.933-9.648H504.8l-3.933,9.648h-9.647l18.434-43.322h8.726l18.435,43.322ZM513.89,77.941l-5.715,13.948H519.6Z" fill="#77b850"/><path d="M543.446,109.894V66.88h9.463v34.472h21.445v8.542Z" fill="#77b850"/><path d="M197.754,153.742a11.681,11.681,0,0,1-3.235,4.179,14.573,14.573,0,0,1-4.955,2.58,21.509,21.509,0,0,1-6.38.891,28.5,28.5,0,0,1-9.648-1.689,25.553,25.553,0,0,1-8.6-5.192l5.592-6.7a28.045,28.045,0,0,0,6.053,3.81,16.188,16.188,0,0,0,6.79,1.413,8.27,8.27,0,0,0,4.578-1.076,3.383,3.383,0,0,0,1.628-2.98v-.123a3.726,3.726,0,0,0-.339-1.629,3.432,3.432,0,0,0-1.294-1.32,13.647,13.647,0,0,0-2.649-1.229q-1.7-.613-4.406-1.29a53.524,53.524,0,0,1-5.914-1.783,16.615,16.615,0,0,1-4.5-2.426,9.823,9.823,0,0,1-2.865-3.6,12.469,12.469,0,0,1-1.017-5.345v-.123a12.463,12.463,0,0,1,1.1-5.315,12.092,12.092,0,0,1,3.083-4.087,13.85,13.85,0,0,1,4.739-2.642,19.031,19.031,0,0,1,6.073-.923,25.7,25.7,0,0,1,8.7,1.415,25.2,25.2,0,0,1,7.281,4.055l-4.915,7.127a31.348,31.348,0,0,0-5.654-3.1,14.439,14.439,0,0,0-5.53-1.137,6.705,6.705,0,0,0-4.148,1.074,3.268,3.268,0,0,0-1.382,2.674v.123a3.867,3.867,0,0,0,.4,1.813,3.618,3.618,0,0,0,1.448,1.382,13.524,13.524,0,0,0,2.865,1.167q1.816.555,4.59,1.292a44.179,44.179,0,0,1,5.822,1.936,16.242,16.242,0,0,1,4.313,2.58,9.854,9.854,0,0,1,2.649,3.532,11.991,11.991,0,0,1,.895,4.855v.123A13.314,13.314,0,0,1,197.754,153.742Z" fill="#009ddf"/><path d="M207.149,160.778V117.764h32.384v8.418H216.489v8.725h20.278v8.42H216.489v9.033h23.35v8.418Z" fill="#009ddf"/><path d="M274.1,160.778l-9.218-13.766h-7.435v13.766h-9.463V117.764h19.664q7.678,0,11.951,3.747t4.271,10.447v.123a13.5,13.5,0,0,1-2.55,8.511,14.781,14.781,0,0,1-6.667,4.824l10.507,15.362Zm.184-28.328a5.491,5.491,0,0,0-1.966-4.609,8.688,8.688,0,0,0-5.47-1.536h-9.4v12.35h9.586A7.857,7.857,0,0,0,272.408,137a5.616,5.616,0,0,0,1.875-4.425Z" fill="#009ddf"/><path d="M313.315,161.085h-8.356l-17.39-43.321h10.446l11.245,30.293,11.245-30.293h10.2Z" fill="#009ddf"/><path d="M337.772,160.778V117.764h9.463v43.014Z" fill="#009ddf"/><path d="M392.339,157.029a20.106,20.106,0,0,1-8.542,3.964,27.974,27.974,0,0,1-5.653.521,22.3,22.3,0,0,1-8.788-1.719,21.216,21.216,0,0,1-11.614-11.738,22.671,22.671,0,0,1-1.658-8.663v-.123a22.448,22.448,0,0,1,1.658-8.634,22.194,22.194,0,0,1,4.609-7.066,21.377,21.377,0,0,1,7.067-4.794,23.012,23.012,0,0,1,9.1-1.751,28.348,28.348,0,0,1,5.5.492,22.924,22.924,0,0,1,4.517,1.352,19.59,19.59,0,0,1,3.748,2.089,25.459,25.459,0,0,1,3.2,2.7l-6.022,6.943a22.847,22.847,0,0,0-5.132-3.564,13.071,13.071,0,0,0-5.868-1.29,11.911,11.911,0,0,0-8.972,3.932,13.477,13.477,0,0,0-2.581,4.272,14.512,14.512,0,0,0-.921,5.192v.123a14.761,14.761,0,0,0,.921,5.223,13.681,13.681,0,0,0,2.551,4.3,11.825,11.825,0,0,0,9,3.994,13.173,13.173,0,0,0,6.237-1.351,24.272,24.272,0,0,0,5.07-3.687l6.021,6.083A31.158,31.158,0,0,1,392.339,157.029Z" fill="#009ddf"/><path d="M403.289,160.778V117.764h32.384v8.418H412.63v8.725h20.278v8.42H412.63v9.033h23.35v8.418Z" fill="#009ddf"/><path d="M474.393,153.742a11.67,11.67,0,0,1-3.235,4.179,14.587,14.587,0,0,1-4.954,2.58,21.52,21.52,0,0,1-6.381.891,28.5,28.5,0,0,1-9.648-1.689,25.553,25.553,0,0,1-8.6-5.192l5.592-6.7a28.045,28.045,0,0,0,6.053,3.81,16.18,16.18,0,0,0,6.789,1.413,8.271,8.271,0,0,0,4.579-1.076,3.383,3.383,0,0,0,1.628-2.98v-.123a3.726,3.726,0,0,0-.339-1.629,3.439,3.439,0,0,0-1.294-1.32,13.6,13.6,0,0,0-2.65-1.229q-1.693-.613-4.4-1.29a53.566,53.566,0,0,1-5.916-1.783,16.623,16.623,0,0,1-4.5-2.426,9.8,9.8,0,0,1-2.865-3.6,12.47,12.47,0,0,1-1.016-5.345v-.123a12.463,12.463,0,0,1,1.1-5.315,12.079,12.079,0,0,1,3.083-4.087,13.85,13.85,0,0,1,4.739-2.642,19.026,19.026,0,0,1,6.073-.923,25.708,25.708,0,0,1,8.7,1.415,25.215,25.215,0,0,1,7.282,4.055l-4.917,7.127a31.307,31.307,0,0,0-5.653-3.1,14.443,14.443,0,0,0-5.53-1.137,6.7,6.7,0,0,0-4.148,1.074,3.271,3.271,0,0,0-1.382,2.674v.123a3.855,3.855,0,0,0,.4,1.813,3.612,3.612,0,0,0,1.448,1.382,13.5,13.5,0,0,0,2.865,1.167q1.818.555,4.59,1.292a44.245,44.245,0,0,1,5.823,1.936,16.273,16.273,0,0,1,4.313,2.58,9.865,9.865,0,0,1,2.649,3.532,12.008,12.008,0,0,1,.893,4.855v.123A13.3,13.3,0,0,1,474.393,153.742Z" fill="#009ddf"/><path d="M108.553,144.9a72.516,72.516,0,0,0-6.6-12.062A182.37,182.37,0,0,0,87.65,113.793c-6.777-7.784-18.811-14.267-18.932-14.331,0,0-10.577-5.914-30.869-7.231-10.781-.7-15.622,0-15.622,0l.594.938s6.2,9.51,19.7,17.576C54.208,117.724,71.3,121.184,71.3,121.184s-18.594-1.359-33.538-9.764C30.98,107.6,20.923,94.778,20.923,94.778A44.585,44.585,0,0,0,30.038,120.5c4.049,5.3,10.3,10.273,22.415,13.839,10.551,3.107,21.565,2.758,27,3.17,9.736.736,17.528,2.784,21.786,6.558a9.988,9.988,0,0,1,3.106,7.635l-.006,1.4h.018V170.4a.963.963,0,0,1-.963.962H71.952a.962.962,0,0,1-.962-.962V147.8a5.674,5.674,0,0,0-2.023-4.033,16.286,16.286,0,0,0-3.506-2.123v29.515a5.776,5.776,0,0,0,5.776,5.775h32.872a5.777,5.777,0,0,0,5.777-5.775v-19.2A19.405,19.405,0,0,0,108.553,144.9Z" fill="url(#a)"/><path d="M66.013,70.991a72.419,72.419,0,0,0,6.594,12.062A182.2,182.2,0,0,0,86.915,102.1c6.777,7.784,18.811,14.266,18.932,14.331,0,0,10.577,5.914,30.869,7.23,10.781.7,15.622.005,15.622.005l-.594-.938s-6.2-9.51-19.7-17.576c-11.689-6.983-28.782-10.443-28.782-10.443s18.594,1.359,33.537,9.764c6.784,3.816,16.841,16.642,16.841,16.642a44.583,44.583,0,0,0-9.115-25.727c-4.048-5.3-10.3-10.273-22.415-13.839-10.551-3.107-21.564-2.759-27-3.171-9.735-.735-17.528-2.783-21.786-6.557a9.988,9.988,0,0,1-3.106-7.635l.006-1.4h-.018V45.489a.963.963,0,0,1,.963-.962h31.442a.963.963,0,0,1,.963.962v22.6a5.67,5.67,0,0,0,2.022,4.033,16.263,16.263,0,0,0,3.506,2.122V44.729a5.775,5.775,0,0,0-5.776-5.776H70.456a5.776,5.776,0,0,0-5.776,5.776V63.663l0,.264A19.388,19.388,0,0,0,66.013,70.991Z" fill="#009ddf"/></g></svg>