<svg xmlns="http://www.w3.org/2000/svg" width="39.401" height="40.409" viewBox="0 0 39.401 40.409">
  <g id="Group_780" data-name="Group 780" transform="translate(0)">
    <path id="Path_186" data-name="Path 186" d="M-883.552,583.146v-2.085a13.551,13.551,0,0,1-2.119-1.016,1.583,1.583,0,0,1-.355-1.151c.005-1.06.634-1.473,2.473-1.712v-2.088a13.58,13.58,0,0,1-2.117-1.013,1.583,1.583,0,0,1-.356-1.151c0-1.063.636-1.478,2.518-1.718v-2.083a13.216,13.216,0,0,1-2.017-1,1.5,1.5,0,0,1-.339-1.087c.006-1.088.623-1.546,2.339-1.8v-3.445h36.894V602.2H-883.5v-3.214a15.787,15.787,0,0,1-2.177-1.047c-.252-.171-.346-.708-.354-1.081-.021-1.1.583-1.522,2.478-1.785V593a13.555,13.555,0,0,1-2.122-1.021,1.584,1.584,0,0,1-.353-1.153c.007-1.055.624-1.459,2.474-1.711v-2.081a13.542,13.542,0,0,1-2.12-1.018,1.587,1.587,0,0,1-.354-1.152C-886.02,583.8-885.4,583.391-883.552,583.146Zm3.613-17.857v33.393h29.775V565.289Z" transform="translate(886.031 -561.793)" fill="#f88b48"/>
    <path id="Path_187" data-name="Path 187" d="M-854.691,575.024q0,2.975,0,5.948c0,2.686-1.406,4.1-4.085,4.1-2.436,0-4.872,0-7.308,0a1.69,1.69,0,0,0-1.7,2.459c.068.177.36.3.572.386a4.666,4.666,0,0,1,2.915,4.737,4.685,4.685,0,0,1-3.943,4.262,4.653,4.653,0,0,1-5.228-3.314,4.643,4.643,0,0,1,2.672-5.636.905.905,0,0,0,.664-1.038c-.013-2.772,1.4-4.179,4.16-4.18,2.461,0,4.922,0,7.382,0,1.158,0,1.567-.412,1.569-1.567q.007-2.758,0-5.518c0-.214-.022-.428-.042-.815-.573.559-1.025,1.036-1.514,1.469a1.12,1.12,0,0,1-1.834-.215,1.02,1.02,0,0,1,.165-1.3c1.18-1.209,2.365-2.415,3.585-3.584a1.045,1.045,0,0,1,1.653.021q1.778,1.7,3.482,3.475a1.078,1.078,0,0,1,.031,1.654c-.5.48-1.035.462-1.657-.074a5.91,5.91,0,0,1-.69-.68c-.2-.246-.365-.531-.546-.8Zm-14.265,19.651a2.4,2.4,0,0,0,2.392-2.426,2.41,2.41,0,0,0-2.426-2.4,2.415,2.415,0,0,0-2.4,2.433A2.418,2.418,0,0,0-868.956,594.675Z" transform="translate(883.401 -563.71)" fill="#f88b48"/>
    <path id="Path_188" data-name="Path 188" d="M-870.488,575.651c-.995-.977-1.858-1.762-2.637-2.622a1.874,1.874,0,0,1-.522-1.222,1.089,1.089,0,0,1,1.872-.6c.762.673,1.47,1.409,2.174,2.144a4.006,4.006,0,0,1,.455.838c1.071-1.1,1.858-1.955,2.708-2.743a1.907,1.907,0,0,1,1.15-.55,1.087,1.087,0,0,1,.714,1.828c-.576.68-1.229,1.3-1.869,1.921-.283.276-.614.5-1.01.822.577.583,1.025,1.032,1.468,1.486.484.5.989.978,1.439,1.506a1,1,0,0,1-.067,1.471,1.017,1.017,0,0,1-1.529.063c-.662-.6-1.292-1.233-1.918-1.872-.277-.283-.506-.612-.833-1.014-.821.821-1.515,1.516-2.212,2.207a9,9,0,0,1-.76.712,1.017,1.017,0,0,1-1.474-.076,1.019,1.019,0,0,1-.061-1.53c.634-.7,1.31-1.357,1.985-2.017C-871.169,576.159-870.877,575.962-870.488,575.651Z" transform="translate(883.415 -563.724)" fill="#f88b48"/>
    <path id="Path_189" data-name="Path 189" d="M-853.934,596.752c-.882-.866-1.744-1.651-2.524-2.511a1.878,1.878,0,0,1-.525-1.221,1.089,1.089,0,0,1,1.871-.6c.762.672,1.47,1.409,2.174,2.143a4,4,0,0,1,.46.837c1.067-1.092,1.853-1.951,2.7-2.739a1.9,1.9,0,0,1,1.149-.551,1.087,1.087,0,0,1,.718,1.826c-.576.68-1.233,1.292-1.867,1.922-.28.279-.589.528-.97.865.533.539.981.987,1.423,1.44.485.5.99.978,1.44,1.506a1,1,0,0,1-.064,1.472,1.016,1.016,0,0,1-1.529.066c-.662-.6-1.292-1.234-1.918-1.872-.276-.282-.508-.61-.839-1.012-.8.8-1.474,1.474-2.153,2.149a9.7,9.7,0,0,1-.75.723,1.063,1.063,0,0,1-1.541-.028,1.047,1.047,0,0,1-.013-1.59c.706-.766,1.463-1.487,2.2-2.229C-854.337,597.187-854.188,597.022-853.934,596.752Z" transform="translate(879.873 -568.23)" fill="#f88b48"/>
  </g>
</svg>
