<svg id="Group_782" data-name="Group 782" xmlns="http://www.w3.org/2000/svg" width="65.316" height="50.924" viewBox="0 0 65.316 50.924">
  <path id="Path_197" data-name="Path 197" d="M-139.793,598.873c.436-6.295.861-12.443,1.3-18.736-.373.121-.65.191-.913.3-3.541,1.462-7.087,2.913-10.609,4.419a1.843,1.843,0,0,0-.889,1,38.069,38.069,0,0,0-1.578,5.139c-.344,1.754-1.667,2.02-2.991,2.554-.131-2.579-.329-5.071-.356-7.564a3.919,3.919,0,0,0-1.272-3.041c-1.751-1.687-3.38-3.5-5.06-5.263,1.355-1.181,2.364-1.335,3.839-.62,1.587.769,3.169,1.549,4.773,2.283a1.437,1.437,0,0,0,1.014.076c3.749-1.516,7.483-3.07,11.219-4.617a2.948,2.948,0,0,0,.4-.276l-14.166-12.2c1.634-.7,3.122-1.359,4.638-1.948.227-.088.619.112.879.271q8.092,4.962,16.162,9.96a1.594,1.594,0,0,0,1.676.142c2.759-1.2,5.54-2.356,8.317-3.517a8.355,8.355,0,0,1,4.285-.638c2.05.249,2.71,1.644,1.547,3.351a8.052,8.052,0,0,1-3.721,2.838c-2.751,1.144-5.489,2.324-8.248,3.447a1.39,1.39,0,0,0-.937,1.094c-1.4,6.168-2.824,12.33-4.2,18.5a1.7,1.7,0,0,1-1.19,1.4C-137.153,597.7-138.39,598.279-139.793,598.873Z" transform="translate(182.321 -560.356)" fill="#f88b48"/>
  <path id="Path_198" data-name="Path 198" d="M-166.527,610.5c-1.077.2-2.148.437-3.232.581a23.02,23.02,0,0,1-7.455-.067c-4.395-.854-6.133-4.23-5.781-8.181.383-4.309,2.833-7.574,5.7-10.547a53.127,53.127,0,0,1,14.023-9.932.781.781,0,0,1,1.106.173c.928,1.007,1.924,1.953,2.837,2.974a2.048,2.048,0,0,1,.447,1.131c.086,1.03.029,2.073.126,3.1a1.084,1.084,0,0,1-.8,1.293,49.217,49.217,0,0,0-10.516,5.625,42,42,0,0,0-4.143,3.7,7.028,7.028,0,0,0-1.189,1.722c-1.7,3.109-.722,5.942,2.615,7.109a30.327,30.327,0,0,0,4.9.956,7.862,7.862,0,0,0,1.315.012Z" transform="translate(183.039 -561.107)" fill="#f88b48"/>
  <path id="Path_199" data-name="Path 199" d="M-165.963,598.666c-.137-1.709-.137-1.709,1.5-2.4.16.674.29,1.347.493,2,.064.2.327.486.5.489,2.491.032,4.983.021,7.611.021-.351-1.572.419-2.249,1.883-2.455v2.474h1.159c2.041,0,4.084-.015,6.125.01.558.007.827-.16.9-.742q.393-2.984.855-5.958c.117-.76-.2-.942-.9-.919-1.424.044-2.851.013-4.254.013-.029-.107-.048-.139-.042-.166.37-1.747.37-1.745,2.159-1.747q1.325,0,2.651-.013a2.649,2.649,0,0,0,.4-.091c-.035-.544-.061-1.107-.111-1.667-.145-1.623-.013-1.794,1.734-2.091.069.852.154,1.7.2,2.541.064,1.2.051,1.2,1.241,1.442v1.729l-1.025.113-.952,7.48,1.445.139-.173,1.7c-.121.061-.18.119-.226.11-1.42-.274-1.895.5-2.409,1.719a39.369,39.369,0,0,1-2.778,4.794,8.762,8.762,0,0,1-.66.848l.144.233a27.714,27.714,0,0,0,3.491-1.8c1.465-1.022,2.773-2.265,4.169-3.388A10.756,10.756,0,0,1-139,601.807c1.05-.532,2.159-.949,3.412-1.487a6.423,6.423,0,0,1-.267.687,21.96,21.96,0,0,1-21.327,11,21.729,21.729,0,0,1-15.107-8.455.9.9,0,0,1,.025-1.4c.481-.509.916-1.059,1.4-1.567,1.168-1.229,2.457-2.192,4.308-1.816a1.194,1.194,0,0,0,.364-.018A1.358,1.358,0,0,0-165.963,598.666Zm10.1,10.155c0-2.566-.009-5.057.007-7.547,0-.609-.381-.58-.793-.579q-2.6,0-5.2,0h-1.339C-162.088,604.9-158.756,608.6-155.867,608.822Zm1.98-8.06v8.057c3.257-.156,6.535-4.994,7.172-8.057Zm-7.363,7.438c-.033-.173-.025-.246-.058-.285a20.235,20.235,0,0,1-3.861-6.771c-.056-.169-.267-.406-.409-.408-1.681-.029-3.363-.018-5.249-.018A19.142,19.142,0,0,0-161.25,608.2Z" transform="translate(182.68 -561.217)" fill="#f88b48"/>
  <path id="Path_200" data-name="Path 200" d="M-170.972,579.17h4.732a9.5,9.5,0,0,1-.485,1.553.956.956,0,0,1-.726.336c-1.309.034-2.621.042-3.929,0a.9.9,0,0,0-1.027.666c-.363,1.063-.7,2.14-1.139,3.172a4.9,4.9,0,0,1-1.012,1.529,10.3,10.3,0,0,1-2.385,1.726c.226-1.322.363-2.666.691-3.962a21.853,21.853,0,0,1,18.43-16.249c.332-.041.662-.105,1-.127,3.558-.241,3.581-.265,6.236,2.164a33.9,33.9,0,0,1,2.666,2.878,18.66,18.66,0,0,1,1.137,1.615c-.065.094-.086.158-.127.178-1.476.682-1.476.681-2.507-.612a7.183,7.183,0,0,0-4.639-3v5.8c-1.668-.265-1.952-.583-1.952-2.069v-3.8a3.888,3.888,0,0,0-1.173.3,15.207,15.207,0,0,0-3.095,2.338c-1.006,1.173-2.373,1.452-3.555,2.17l-.21-.208,2.69-3.915A19.222,19.222,0,0,0-170.972,579.17Z" transform="translate(182.829 -560.609)" fill="#f88b48"/>
</svg>
