<svg id="Group_781" data-name="Group 781" xmlns="http://www.w3.org/2000/svg" width="61.026" height="41.483" viewBox="0 0 61.026 41.483">
  <path id="Path_190" data-name="Path 190" d="M-400.316,594.407c-2.928,0-5.734,0-8.539,0a3.7,3.7,0,0,1-3.388-1.6,5.5,5.5,0,0,1-.816-2.614c-.089-3.716-.051-7.435-.033-11.153a3.934,3.934,0,0,1,2.563-3.947c1.68-.668,3.074-.1,4.387,1.081a40.593,40.593,0,0,0,3.763,2.839,1.783,1.783,0,0,0,.951.189c1.34.02,2.68-.007,4.02.015a2.073,2.073,0,0,1,2.228,1.965,2.074,2.074,0,0,1-2.228,1.963c-1.675.015-3.359.111-5.021-.039a11.661,11.661,0,0,1-2.7-.936v8.242c.306.015.657.045,1.009.046,1.809.005,3.617-.006,5.426.005a2.066,2.066,0,0,1,2.314,2.278q.017,5.827,0,11.656a2.055,2.055,0,0,1-1.949,2.24,2.057,2.057,0,0,1-1.978-2.221c-.019-2.881-.006-5.761-.006-8.642Z" transform="translate(418.007 -565.737)" fill="#f88b48"/>
  <path id="Path_191" data-name="Path 191" d="M-371.745,590.473v-8.554c-2.518,2.1-5.392.995-8.083,1.2a1.9,1.9,0,0,1-1.895-1.955,2.027,2.027,0,0,1,1.961-1.923c1.3-.057,2.615.048,3.915-.049a3.972,3.972,0,0,0,1.908-.618c1.284-.9,2.465-1.941,3.7-2.9a3.716,3.716,0,0,1,3.868-.61,3.5,3.5,0,0,1,2.443,3.157c.1,4.147.133,8.3.033,12.447a3.779,3.779,0,0,1-4.041,3.74c-2.476.037-4.955.01-7.432.01h-1.228v1.151c0,2.945,0,5.892,0,8.838a2.071,2.071,0,0,1-1.933,2.247,2.085,2.085,0,0,1-1.983-2.225q-.032-5.826,0-11.651a2.089,2.089,0,0,1,2.328-2.292C-376.073,590.458-373.966,590.473-371.745,590.473Z" transform="translate(419.935 -565.74)" fill="#f88b48"/>
  <path id="Path_192" data-name="Path 192" d="M-386.474,587.394v16.142h4.7v3.1h-12.66v-3.044h4.708V587.394h-1.064c-3.548,0-7.1.013-10.646-.007-1.409-.007-2.23-1.024-1.7-2.111a2.1,2.1,0,0,1,1-.874,3.286,3.286,0,0,1,1.28-.137q12.756-.01,25.512,0h.2c1.478.007,2.246.539,2.262,1.566.015.994-.8,1.567-2.256,1.567C-378.881,587.4-382.627,587.394-386.474,587.394Z" transform="translate(418.61 -565.156)" fill="#f88b48"/>
  <path id="Path_193" data-name="Path 193" d="M-408.1,599.017V603.9h3.091V607h-9.447v-3.048h3.1v-4.934c-1.406,0-2.8,0-4.192,0-1.618-.006-2.175-.55-2.177-2.166q-.01-8.236.006-16.472a2.137,2.137,0,0,1,.234-1.248,2.115,2.115,0,0,1,1.335-.835,2.018,2.018,0,0,1,1.323.843,2.453,2.453,0,0,1,.225,1.351c.014,4.72.009,9.44.009,14.161v1.234h1.134q4.67,0,9.34,0a6.746,6.746,0,0,1,.8.018,1.632,1.632,0,0,1,1.569,1.639A1.629,1.629,0,0,1-403.387,599c-.767.039-1.539.012-2.309.013S-407.23,599.017-408.1,599.017Z" transform="translate(417.724 -565.523)" fill="#f88b48"/>
  <path id="Path_194" data-name="Path 194" d="M-365.7,598.993v4.867h3.117v3.122h-9.425v-3.068h3.082v-4.923c-1.56,0-3.089.023-4.615-.007a1.6,1.6,0,0,1-1.731-1.572,1.629,1.629,0,0,1,1.675-1.54c.265-.024.535-.012.8-.012h10.356v-1.151q0-6.88.006-13.758a2.266,2.266,0,0,1,.172-1.26c.353-.451.927-1.007,1.4-1.005s1.014.581,1.394,1.02c.2.228.151.7.152,1.063q.011,8.034,0,16.067c0,1.615-.549,2.15-2.184,2.156C-362.86,599-364.227,598.993-365.7,598.993Z" transform="translate(420.332 -565.499)" fill="#f88b48"/>
  <path id="Path_195" data-name="Path 195" d="M-409.106,566.263a3.989,3.989,0,0,1,3.882,3.928,4.033,4.033,0,0,1-3.954,3.98,4.032,4.032,0,0,1-3.981-3.946A3.991,3.991,0,0,1-409.106,566.263Z" transform="translate(418.005 -566.262)" fill="#f88b48"/>
  <path id="Path_196" data-name="Path 196" d="M-364.319,570.182a4.036,4.036,0,0,1-3.945,3.99,4.033,4.033,0,0,1-3.991-3.937,3.994,3.994,0,0,1,3.943-3.973A3.987,3.987,0,0,1-364.319,570.182Z" transform="translate(420.517 -566.262)" fill="#f88b48"/>
</svg>
