<svg xmlns="http://www.w3.org/2000/svg" width="38.275" height="34.102" viewBox="0 0 38.275 34.102"><g transform="translate(764.336 -1029.081)"><g transform="translate(-764.336 1029.081)"><path d="M-728.816,1037.545H-732.2c.449-.451.8-.8,1.149-1.152.54-.532,1-1.265,1.651-1.533a6.405,6.405,0,0,1,2.256-.077c.348,0,.7,0,1.083,0v28.487H-759.85a4.243,4.243,0,0,1-4.482-4.467q-.008-12.133,0-24.265a4.2,4.2,0,0,1,3.027-4.23,4.137,4.137,0,0,1,5.223,3.1c.087.416.11.847.172,1.353h16.341l.05.126c-.227.229-.452.461-.682.688-.652.643-1.2,1.536-1.988,1.855a7.769,7.769,0,0,1-2.771.105q-5.118.007-10.233,0h-.772v.783q0,9.968-.005,19.938c0,.715-.081,1.429-.128,2.2h27.282Zm-29.9,17.639v-20.571c0-.136,0-.272,0-.408a1.444,1.444,0,0,0-1.13-1.32,1.386,1.386,0,0,0-1.552.767,2.29,2.29,0,0,0-.165.9q-.014,9.989-.007,19.978v.642A4.268,4.268,0,0,1-758.72,1055.184Zm0,3.922a1.42,1.42,0,0,0-1.438-1.447,1.431,1.431,0,0,0-1.415,1.414,1.42,1.42,0,0,0,1.443,1.439A1.4,1.4,0,0,0-758.722,1059.105Z" transform="translate(764.336 -1029.168)" fill="#fff"/><path d="M-732.867,1032.053l2.88,2.874c-.1.1-.224.246-.36.383q-5.31,5.312-10.63,10.616a2.39,2.39,0,0,1-.872.532c-1.1.387-2.211.732-3.319,1.091-.121.039-.248.06-.475.112.169-.518.348-.945.445-1.39a9.3,9.3,0,0,1,2.893-4.844c3.121-2.965,6.108-6.071,9.151-9.118C-733.048,1032.2-732.927,1032.106-732.867,1032.053Zm-9.8,11.481c-.391.011-.747.1-.9.513-.183.513-.359,1.029-.515,1.551-.1.344.134.6.408.541a12.648,12.648,0,0,0,1.871-.627c.13-.051.226-.266.279-.426A1.172,1.172,0,0,0-742.669,1043.534Z" transform="translate(762.792 -1029.327)" fill="#fff"/><path d="M-729.784,1042.087v16.282h-9.01v-1.261l.656-.1v-5.054h3.435v1.291h-2.034v3.77h5.582v-3.726l-1.08-.048v-1.3l1.085-.05v-2.807h-7.175v-1.37h7.173v-4.235h-3.688l-.069-.129c.4-.4.806-.805,1.22-1.2a.435.435,0,0,1,.272-.061C-732.227,1042.085-731.039,1042.087-729.784,1042.087Z" transform="translate(762.226 -1030.156)" fill="#fff"/><path d="M-742.806,1058.385h-9v-16.246h7.077c-.453.447-.833.85-1.248,1.213a.839.839,0,0,1-.5.086c-1.3.006-2.608,0-3.962,0v4.252h2.97l-.438,1.359h-2.531v2.842h1.076v1.349h-1.077v3.781h5.576v-3.747h-2.02v-1.33h3.4v5.071l.673.074Z" transform="translate(763.301 -1030.16)" fill="#fff"/><path d="M-727.918,1033.839l-2.8-2.787c.527-.575,1.05-1.2,1.628-1.76a.759.759,0,0,1,1.109.07c.571.529,1.126,1.079,1.653,1.652a.779.779,0,0,1-.018,1.2C-726.855,1032.772-727.4,1033.3-727.918,1033.839Z" transform="translate(761.558 -1029.081)" fill="#fff"/></g></g></svg>