<svg xmlns="http://www.w3.org/2000/svg" width="30.401" height="48" viewBox="0 0 30.401 48"><g transform="translate(722.726 -910.196)"><path d="M-714.726,958.2h2.4v-1.6h-1.291l.532-1.594a5.859,5.859,0,0,1,7.411-3.708A5.856,5.856,0,0,1-701.965,955l.53,1.594h-1.291v1.6h10.4v-1.6h-1.121l-5.546-10.4h1.067v-1.6h-1.84l-2.619-7.2h1.259v-1.6h-1.7l-2.191-16.8h1.488v-1.6h-1.6V915a.8.8,0,0,0-.8-.8h-.8v-4h-1.6v4h-.8a.8.8,0,0,0-.8.8v2.4h-1.6V919h1.489l-2.191,16.8h-1.7v1.6h1.258l-2.618,7.2h-1.839v1.6h1.066l-5.547,10.4h-1.12v1.6Zm6.4-42.4h1.6v1.6h-1.6Zm-.1,3.2h1.8l2.191,16.8h-6.178Zm-2.542,18.4h6.88l2.617,7.2h-2.254l-1.435-5.02a.8.8,0,0,0-.769-.58h-3.2a.8.8,0,0,0-.769.58l-1.435,5.02h-2.255Zm5.579,7.2h-4.278l1.142-4h1.994Zm-8.859,1.6h13.44l5.547,10.4h-4.49l-.7-2.1a7.461,7.461,0,0,0-9.437-4.718A7.46,7.46,0,0,0-714.6,954.5l-.7,2.1h-4.49Z" transform="translate(0 0)" fill="#fff"/></g></svg>