<svg xmlns="http://www.w3.org/2000/svg" width="44.922" height="32.978" viewBox="0 0 44.922 32.978"><path d="M-859.877,806.052h-41.233a1.847,1.847,0,0,0-1.844,1.845v17.261a1.866,1.866,0,0,0,.024.285,1.316,1.316,0,0,0,.867,1.49l35.239,12.011a1.636,1.636,0,0,0,.527.087,1.646,1.646,0,0,0,.767-.19,1.643,1.643,0,0,0,.812-1.014L-861.749,827h1.872a1.847,1.847,0,0,0,1.844-1.845V807.9A1.847,1.847,0,0,0-859.877,806.052Zm-7.1,30.059L-893.7,827h29.223Zm6.312-11.74h-39.659V808.684h39.659v15.687Z" transform="translate(902.954 -806.052)" fill="#fff"/></svg>