<svg xmlns="http://www.w3.org/2000/svg" width="48.081" height="55.651" viewBox="0 0 48.081 55.651"><g transform="translate(-34.007)"><g transform="translate(47.174)"><g transform="translate(0)"><path d="M163.178,0A10.886,10.886,0,0,0,152.3,10.875v5.634a10.874,10.874,0,1,0,21.747,0V10.875A10.886,10.886,0,0,0,163.178,0Z" transform="translate(-152.304)" fill="#f88b48"/></g></g><g transform="translate(34.007 29.149)"><g transform="translate(0)"><path d="M82.028,274.3a27.581,27.581,0,0,0-15.671-12.387.433.433,0,0,0-.434.106A45.405,45.405,0,0,1,58.055,268a56.5,56.5,0,0,1-7.884-5.981.434.434,0,0,0-.434-.106A27.575,27.575,0,0,0,34.067,274.3a.435.435,0,0,0,0,.44,27.885,27.885,0,0,0,47.961,0A.434.434,0,0,0,82.028,274.3Zm-9.192,3.244a.455.455,0,0,1-.468.423H69.423a.507.507,0,0,0-.5.447v3.046a.373.373,0,0,1-.368.422H65.908a.453.453,0,0,1-.466-.422v-3.046a.421.421,0,0,0-.4-.447H61.966a.429.429,0,0,1-.439-.423v-2.622a.437.437,0,0,1,.439-.434h3.072a.411.411,0,0,0,.4-.436V271a.458.458,0,0,1,.466-.429h2.616a.4.4,0,0,1,.4.429v3.058a.462.462,0,0,0,.473.427h2.974a.472.472,0,0,1,.468.443v2.613Z" transform="translate(-34.007 -261.896)" fill="#f88b48"/></g></g></g></svg>