<svg id="Group_776" data-name="Group 776" xmlns="http://www.w3.org/2000/svg" width="48.081" height="52.626" viewBox="0 0 48.081 52.626">
  <path id="Path_171" data-name="Path 171" d="M-57.016-148.872v18.41a51.547,51.547,0,0,1-14.754.047v-18.552l-.212-.019c-.321,1.864-.763,3.717-.93,5.594a5.932,5.932,0,0,1-2.8,4.7c-2.721,1.865-5.275,3.968-7.939,5.92a2.9,2.9,0,0,1-4.752-1.7,2.928,2.928,0,0,1,1.356-3.027c2.466-1.854,4.918-3.728,7.4-5.556a2.383,2.383,0,0,0,1.04-1.725c.493-3.257,1.032-6.51,1.665-9.741a4.1,4.1,0,0,1,1.14-2.124,16.615,16.615,0,0,1,12.5-4.262,16.944,16.944,0,0,1,8.374,2.587,6.358,6.358,0,0,1,3.272,4.838c.383,3.083.965,6.143,1.512,9.2a1.854,1.854,0,0,0,.693,1q3.78,2.9,7.607,5.747a2.944,2.944,0,0,1,1.388,3.007,2.845,2.845,0,0,1-4.479,1.915q-4.874-3.527-9.6-7.257a3.852,3.852,0,0,1-1.114-2.128c-.481-2.28-.81-4.593-1.2-6.892Z" transform="translate(88.456 174.353)" fill="#f88b48"/>
  <path id="Path_172" data-name="Path 172" d="M-64.649-121.361a97.4,97.4,0,0,1-21.324-2.7,2.922,2.922,0,0,1-2.308-3.618,2.9,2.9,0,0,1,3.505-2.069c3.6.64,7.187,1.5,10.819,1.86,4.192.413,8.427.441,12.645.517,2.3.042,3.848,1.844,3.175,3.946a2.615,2.615,0,0,1-2.371,1.784C-61.877-121.466-63.268-121.449-64.649-121.361Z" transform="translate(88.455 173.988)" fill="#f88b48"/>
  <path id="Path_173" data-name="Path 173" d="M-58.3-168.646a5.937,5.937,0,0,1-5.816,5.9,5.955,5.955,0,0,1-5.939-5.867,5.967,5.967,0,0,1,5.825-5.893A5.962,5.962,0,0,1-58.3-168.646Z" transform="translate(88.241 174.512)" fill="#f88b48"/>
  <path id="Path_174" data-name="Path 174" d="M-55.726-121.744a5.53,5.53,0,0,0-.619-5.784c1.476-.219,2.815-.383,4.138-.623,2.879-.521,5.75-1.081,8.625-1.625a2.854,2.854,0,0,1,3.52,2.284,2.854,2.854,0,0,1-2.289,3.378c-2.65.566-5.313,1.072-7.979,1.553C-52.054-122.251-53.794-122.034-55.726-121.744Z" transform="translate(88.08 173.988)" fill="#f88b48"/>
</svg>
