<svg xmlns="http://www.w3.org/2000/svg" width="63.504" height="46.8" viewBox="0 0 63.504 46.8">
  <g id="Group_771" data-name="Group 771" transform="translate(0 0)">
    <path id="Path_153" data-name="Path 153" d="M-502.437-123.93h-47.57c.7-1.973,1.373-3.886,2.057-5.8.318-.889.419-2.128,1.057-2.556.682-.457,1.88-.149,2.853-.168.456-.008.912,0,1.431,0v-2.086h-3.625c.492-1.38.918-2.639,1.409-3.871.062-.154.469-.238.719-.24,1.781-.021,3.563-.011,5.343-.011h.989v-2.1h-6.252l.948-2.672c.978-2.757,1.972-5.508,2.921-8.275a.949.949,0,0,1,1.1-.769c1.087.054,2.178.015,3.336.015v-2.113h-3.4l5.723-16.1C-523.054-155.055-512.8-139.572-502.437-123.93Z" transform="translate(565.941 170.666)" fill="#f88b48"/>
    <path id="Path_154" data-name="Path 154" d="M-537.45-166.148q-1.056,2.989-2.113,5.977-6.2,17.432-12.38,34.869a1.51,1.51,0,0,1-1.73,1.243c-3.5-.082-7.01-.031-10.517-.031h-1.092l27.686-42.129Z" transform="translate(565.281 170.858)" fill="#f88b48"/>
  </g>
</svg>
