<svg id="endoscopy" xmlns="http://www.w3.org/2000/svg" width="115.169" height="115.169" viewBox="0 0 115.169 115.169">
  <path id="Path_38181" data-name="Path 38181" d="M17,57H35.576v3.715H17Z" transform="translate(12.721 47.023)" fill="#009ddf"/>
  <path id="Path_38182" data-name="Path 38182" d="M44.573,45.576h0A9.284,9.284,0,1,0,55.6,31.456a5.572,5.572,0,0,0-11.032,1.116,5.523,5.523,0,0,0,.353,1.893c-.119-.007-.232-.035-.353-.035a5.573,5.573,0,1,0,0,11.145Zm13-5.573A5.533,5.533,0,0,1,48.3,44.117a5.433,5.433,0,0,0,1.493-6.007c.119.007.232.035.353.035a5.554,5.554,0,0,0,4.832-2.85A5.568,5.568,0,0,1,57.576,40Zm-7.43-9.288a1.858,1.858,0,1,1-1.858,1.858A1.859,1.859,0,0,1,50.145,30.715Zm-5.573,7.43A1.858,1.858,0,1,1,42.715,40,1.858,1.858,0,0,1,44.573,38.145Z" transform="translate(31.587 21.297)" fill="#009ddf"/>
  <path id="Path_38183" data-name="Path 38183" d="M112.454,101.308a3.719,3.719,0,0,0,3.715-3.715V38.151a3.719,3.719,0,0,0-3.715-3.715H67.406A46.021,46.021,0,0,0,63.067,24.1,13,13,0,0,0,54.875,1H44.01A28.152,28.152,0,0,0,29.09,53.023l1.631,1.02v8.606A38.311,38.311,0,0,0,1,99.967v16.2H116.169v-3.715H79.018V101.308ZM78.915,97.593a38.068,38.068,0,0,0-2.389-11.145h35.927V97.593ZM66.453,38.151h46V82.733H74.881a38.563,38.563,0,0,0-2.127-3.715h35.985V41.866H64.157V39.3ZM49.3,62.649V56.727h3.715a11.1,11.1,0,0,0,3.715-.65v9.135A38.19,38.19,0,0,0,49.3,62.649Zm11.145-8.783a11.108,11.108,0,0,0,3.715-8.285h7.479a18.5,18.5,0,0,0,0,29.721H69.971a38.307,38.307,0,0,0-9.529-8.129Zm37.151,6.576a14.861,14.861,0,1,1-14.86-14.861A14.878,14.878,0,0,1,97.593,60.442ZM93.83,45.581h11.194V75.3H93.83a18.5,18.5,0,0,0,0-29.721ZM19.576,29.151A24.463,24.463,0,0,1,44.01,4.715H54.875a9.282,9.282,0,1,1,.019,18.564h-.009l-1.876,0v0H53A3.708,3.708,0,0,1,53,15.86V12.145a7.431,7.431,0,0,0-7.423,7.423,7.346,7.346,0,0,0,1.024,3.706c-2.019,0-3.721,0-4.742,0h-.009a3.708,3.708,0,0,1,.006-7.415h.007l-.007-3.715a7.411,7.411,0,0,0-7.31,6.308,8.517,8.517,0,0,0-3.828,7.133V27.03A8.05,8.05,0,0,0,26.51,41.495l4.211,3.158v4.976A24.276,24.276,0,0,1,19.576,29.151ZM4.715,99.967A34.6,34.6,0,0,1,32.922,65.981l1.514-.282V42.8l-5.7-4.272a4.334,4.334,0,0,1,2.6-7.8h3.1V25.587a4.82,4.82,0,0,1,.825-2.682,7.252,7.252,0,0,0,6.592,4.088h.017c2.27,0,7.783,0,13.01,0h.013a12.971,12.971,0,0,0,5-1,42.138,42.138,0,0,1,3.934,9.312L60.442,37v4.863h-13a9.3,9.3,0,0,0-9.288,9.288v21.1a10.607,10.607,0,0,0-6.78,8.212,6.1,6.1,0,0,1-3.366,4.479L22.49,87.594a5.149,5.149,0,0,0-.856,8.757,24.436,24.436,0,0,0,3.357,2.114,9.286,9.286,0,0,0-5.415,8.417,9.192,9.192,0,0,0,1.906,5.573H15.86V90.163H12.145v22.291H4.715Zm37.151-2.374H36.505a21.2,21.2,0,0,1-12.643-4.217,1.432,1.432,0,0,1,.241-2.437l5.513-2.651a9.826,9.826,0,0,0,5.419-7.209,6.891,6.891,0,0,1,3.117-4.685v8.2a5.579,5.579,0,0,1-5.573,5.573H30.723v3.715H32.58a9.3,9.3,0,0,0,9.288-9.288V75.3a11.145,11.145,0,1,1,0,22.291Zm-13,14.86a5.573,5.573,0,1,1,0-11.145H51.154a5.573,5.573,0,1,1,0,11.145Zm39.009,0V90.163H64.157v22.291H58.536A9.211,9.211,0,0,0,51.611,97.64a14.842,14.842,0,0,0-9.745-26.052V51.154a5.579,5.579,0,0,1,5.573-5.573h13a7.438,7.438,0,0,1-7.43,7.43h-7.43V65.7l1.514.282A34.6,34.6,0,0,1,75.3,99.967v12.487Z" transform="translate(-1 -1)" fill="#009ddf"/>
  <path id="Path_38184" data-name="Path 38184" d="M55,49h3.715v3.715H55Z" transform="translate(45.308 40.163)" fill="#009ddf"/>
  <path id="Path_38185" data-name="Path 38185" d="M51,49h3.715v3.715H51Z" transform="translate(41.878 40.163)" fill="#009ddf"/>
  <path id="Path_38186" data-name="Path 38186" d="M47,49h3.715v3.715H47Z" transform="translate(38.448 40.163)" fill="#009ddf"/>
</svg>
