<svg xmlns="http://www.w3.org/2000/svg" width="43.507" height="29.813" viewBox="0 0 43.507 29.813"><g transform="translate(524.887 -1039.851)"><g transform="translate(-521.46 1046.21)"><path d="M-509.55,1071.446a1.815,1.815,0,0,1-1.755-1.926c-.01-1.445-.008-2.892-.006-4.338v-2.307h-5.615a2.912,2.912,0,0,1-2.687-1.3,4.185,4.185,0,0,1-.629-2.018c-.053-2.266-.04-4.569-.027-6.8l.005-1.029a3.113,3.113,0,0,1,2.031-3.11,3.134,3.134,0,0,1,3.46.827,22.444,22.444,0,0,0,2.138,1.634l.465.328a1.179,1.179,0,0,0,.457.064c.457.007.916.006,1.373,0,.481,0,.962,0,1.444.006a1.819,1.819,0,0,1,1.927,1.751,1.825,1.825,0,0,1-1.929,1.745c-.286,0-.573.009-.86.014a24.409,24.409,0,0,1-2.7-.043,4.667,4.667,0,0,1-1.407-.439l-.082-.035v4.872c.109.007.222.011.335.011h1.584c.74,0,1.481,0,2.221,0a1.813,1.813,0,0,1,1.991,1.967q.012,4.084,0,8.169a1.813,1.813,0,0,1-1.737,1.941Zm-2.925-9.314h1.908v3.052c0,1.444,0,2.888.006,4.332a1.078,1.078,0,0,0,1.012,1.187h0a1.077,1.077,0,0,0,.994-1.2q.01-4.083,0-8.165c0-.831-.4-1.221-1.252-1.226-.739,0-1.477,0-2.216,0h-1.586c-.179,0-.36-.011-.529-.022l-.549-.027V1053.4l.5.181c.211.077.417.166.622.254a4.075,4.075,0,0,0,1.179.381,23.492,23.492,0,0,0,2.613.04c.289-.005.579-.011.869-.014a1.087,1.087,0,0,0,1.192-1.006,1.085,1.085,0,0,0-1.2-1c-.477-.008-.954-.007-1.43-.006-.461,0-.923,0-1.386,0a1.506,1.506,0,0,1-.877-.2l-.462-.326a22.812,22.812,0,0,1-2.208-1.69,2.4,2.4,0,0,0-2.688-.688,2.391,2.391,0,0,0-1.561,2.423l-.006,1.028c-.012,2.222-.025,4.521.028,6.776a3.465,3.465,0,0,0,.518,1.646,2.2,2.2,0,0,0,2.054.942h4.451Z" transform="translate(520.279 -1048.401)" fill="#fff"/></g><g transform="translate(-498.11 1046.172)"><path d="M-486.289,1071.437a1.653,1.653,0,0,1-1.163-.485,2.013,2.013,0,0,1-.582-1.444q-.022-4.083,0-8.169a1.828,1.828,0,0,1,2-1.975c1.031-.009,2.06-.007,3.118-.006h1.023v-4.908a6.117,6.117,0,0,1-3.656.527,11.376,11.376,0,0,0-1.608-.031,1.543,1.543,0,0,1-1.162-.433,1.8,1.8,0,0,1-.565-1.317,1.784,1.784,0,0,1,1.73-1.713c.415-.017.831-.013,1.248-.007.489.005,1,.01,1.484-.025a2.415,2.415,0,0,0,1.152-.367c.566-.395,1.118-.843,1.65-1.278.308-.251.616-.5.93-.745a2.969,2.969,0,0,1,3.08-.479,2.8,2.8,0,0,1,1.943,2.547c.077,3.389.086,6.167.023,8.74a3.01,3.01,0,0,1-3.2,2.984c-1.2.017-2.409.015-3.613.01l-2.09,0v2.176q0,2.226,0,4.452a1.821,1.821,0,0,1-1.721,1.947Zm2.035-11.337c-.594,0-1.183,0-1.773.007-.856.009-1.257.4-1.262,1.236q-.026,4.081,0,8.16a1.276,1.276,0,0,0,.359.918.956.956,0,0,0,.654.271,1.084,1.084,0,0,0,.986-1.2q.006-2.225,0-4.45v-2.92l2.836,0c1.2.005,2.4.009,3.6-.01a2.278,2.278,0,0,0,2.465-2.258c.062-2.562.054-5.328-.023-8.705a2.1,2.1,0,0,0-1.481-1.876,2.227,2.227,0,0,0-2.342.378c-.309.239-.612.486-.916.733-.544.444-1.106.9-1.7,1.313a3.144,3.144,0,0,1-1.522.5c-.518.037-1.042.031-1.548.026-.4,0-.806-.01-1.206.008a1.051,1.051,0,0,0-1.019.984,1.057,1.057,0,0,0,.332.761.782.782,0,0,0,.6.231,12.592,12.592,0,0,1,1.712.031c1.337.087,2.6.167,3.741-.784l.611-.51v7.162l-1.769,0Z" transform="translate(488.885 -1048.349)" fill="#fff"/></g><g transform="translate(-514.156 1053.237)"><path d="M-494.635,1074.269h-9.616v-2.876h3.3v-10.6h-2.455q-2.691,0-5.38-.007a1.712,1.712,0,0,1-1.486-.727,1.308,1.308,0,0,1-.034-1.288,1.842,1.842,0,0,1,.883-.788,2.253,2.253,0,0,1,.933-.128h.115q7.822,0,15.642,0h2.375c1.685.007,1.949.921,1.958,1.463a1.3,1.3,0,0,1-.367.957,2.178,2.178,0,0,1-1.585.519h-7.574v10.568h3.293Zm-8.872-.744h8.128V1072.1h-3.293v-12.055h8.317a1.51,1.51,0,0,0,1.055-.3.557.557,0,0,0,.154-.422c0-.2-.011-.726-1.215-.731h-2.373q-7.821,0-15.642,0h-.122a1.743,1.743,0,0,0-.626.064,1.109,1.109,0,0,0-.516.436.567.567,0,0,0,0,.57.987.987,0,0,0,.857.374c1.792.01,3.584.008,5.376.007h3.2v12.092h-3.3Z" transform="translate(510.459 -1057.848)" fill="#fff"/></g><g transform="translate(-524.887 1048.8)"><path d="M-515.234,1072.742H-522.6v-2.88h2.176v-2.713h-.537c-.68,0-1.355,0-2.03,0-1.345-.005-1.894-.553-1.9-1.89q-.007-5.771,0-11.543a1.734,1.734,0,0,1,.248-1.11,1.872,1.872,0,0,1,1.223-.721,1.756,1.756,0,0,1,1.225.741,1.822,1.822,0,0,1,.231,1.094c.007,2.678.007,5.282.006,7.886v2.6h7.1a3.929,3.929,0,0,1,.478.017,1.517,1.517,0,0,1,1.426,1.539,1.508,1.508,0,0,1-1.5,1.375c-.391.02-.782.016-1.174.012l-.464,0H-517.4v2.681h2.167Zm-6.62-.744h5.876v-1.424h-2.167V1066.4l2.529,0c.376.006.752.008,1.128-.01a.781.781,0,0,0,.8-.677.78.78,0,0,0-.772-.757,3.23,3.23,0,0,0-.38-.011h-7.85V1061.6q0-3.9-.006-7.81v-.076a1.485,1.485,0,0,0-.084-.649,1.093,1.093,0,0,0-.629-.442,1.191,1.191,0,0,0-.648.449,1.5,1.5,0,0,0-.079.62c-.01,3.868-.009,7.714,0,11.56,0,.93.217,1.144,1.155,1.148.674,0,1.348,0,2.026,0h1.282v4.2h-2.176Z" transform="translate(524.887 -1051.883)" fill="#fff"/></g><g transform="translate(-493.313 1049.091)"><path d="M-472.8,1072.847h-7.349v-2.894h2.159v-2.705l-.6,0c-.762,0-1.515.007-2.269-.009a1.491,1.491,0,0,1-1.578-1.476,1.508,1.508,0,0,1,1.512-1.446,4.105,4.105,0,0,1,.454-.011h7.026v-2.419q0-3.828.005-7.656l0-.146a1.5,1.5,0,0,1,.2-.965,1.933,1.933,0,0,1,1.275-.848h0a1.934,1.934,0,0,1,1.257.843,1.263,1.263,0,0,1,.2.87l0,.119q.008,5.631,0,11.26c0,1.332-.552,1.877-1.9,1.882-.666,0-1.332,0-2.025,0h-.553v2.666h2.184Zm-6.6-.744h5.861v-1.445h-2.184V1066.5h1.3c.692,0,1.357,0,2.022,0,.942,0,1.16-.216,1.16-1.139q0-5.629,0-11.258v-.134a1.356,1.356,0,0,0-.025-.38c-.436-.5-.6-.578-.69-.576-.1,0-.385.175-.689.562a1.312,1.312,0,0,0-.044.494l0,.161q-.009,3.828-.005,7.654v3.164l-7.779,0a3.336,3.336,0,0,0-.376.008c-.4.036-.832.242-.837.712,0,.43.329.715.849.725.748.016,1.5.013,2.251.009l1.347,0v4.194h-2.159Z" transform="translate(482.436 -1052.274)" fill="#fff"/></g><g transform="translate(-521.493 1039.852)"><path d="M-517.155,1046.138h-.007a3.208,3.208,0,0,1-2.249-.96,3.058,3.058,0,0,1-.912-2.18,3.152,3.152,0,0,1,.952-2.243,3.177,3.177,0,0,1,2.265-.9h0a3.178,3.178,0,0,1,3.087,3.125,3.188,3.188,0,0,1-.945,2.232A3.1,3.1,0,0,1-517.155,1046.138Zm0-5.541a2.42,2.42,0,0,0-1.7.69,2.414,2.414,0,0,0-.728,1.717,2.322,2.322,0,0,0,.7,1.651,2.459,2.459,0,0,0,1.722.739h.006a2.358,2.358,0,0,0,1.666-.711,2.438,2.438,0,0,0,.726-1.706,2.421,2.421,0,0,0-2.353-2.381h-.036Z" transform="translate(520.323 -1039.853)" fill="#fff"/></g><g transform="translate(-491.068 1039.85)"><path d="M-476.252,1046.138a3.2,3.2,0,0,1-2.246-.952,3.061,3.061,0,0,1-.921-2.182,3.174,3.174,0,0,1,3.132-3.154,3.112,3.112,0,0,1,2.238.919,3.1,3.1,0,0,1,.935,2.2h0a3.184,3.184,0,0,1-.936,2.232,3.106,3.106,0,0,1-2.2.938Zm-.01-5.544h-.018a2.427,2.427,0,0,0-2.394,2.414,2.323,2.323,0,0,0,.7,1.653,2.454,2.454,0,0,0,1.717.733h0a2.362,2.362,0,0,0,1.674-.719,2.431,2.431,0,0,0,.719-1.7,2.355,2.355,0,0,0-.714-1.673A2.4,2.4,0,0,0-476.262,1040.594Z" transform="translate(479.418 -1039.85)" fill="#fff"/></g></g></svg>