<svg id="Group_779" data-name="Group 779" xmlns="http://www.w3.org/2000/svg" width="97.562" height="97.667" viewBox="0 0 97.562 97.667">
  <path id="Path_183" data-name="Path 183" d="M-61.655,201c-2.648,0-5.046-.07-7.43.06-.467.026-1.084.736-1.307,1.265-3.134,7.458-6.211,14.941-9.3,22.416-.367.887-.708,1.783-1.117,2.648-.685,1.453-1.866,2.045-3.045,1.576a2.514,2.514,0,0,1-1.486-3.51c1.852-4.589,3.767-9.155,5.661-13.728q7.73-18.659,15.461-37.322c.218-.525.392-1.068.72-1.975l-30.185,12.52-4.8-11.592,66.625-27.571,4.789,11.592-29.031,12.172c2.191,5.295,4.3,10.394,6.411,15.492q8.168,19.752,16.334,39.5a7.944,7.944,0,0,1,.416,1.2,2.58,2.58,0,0,1-1.611,3.238,2.374,2.374,0,0,1-3.036-1.616c-1.753-4.164-3.468-8.347-5.195-12.525s-3.468-8.347-5.148-12.544a1.784,1.784,0,0,0-2.008-1.335c-2.17.1-4.35.028-6.755.028v28.855c0,.371.007.745,0,1.119-.039,2.043-1,3.3-2.507,3.273-1.541-.026-2.444-1.221-2.447-3.3q-.01-13.913,0-27.826Zm-.074-18.732-.351-.081L-67.7,195.9h5.97Zm11.183,13.663-5.768-13.741-.279.088v13.653Z" transform="translate(106.981 -136.58)" fill="#fff"/>
  <path id="Path_184" data-name="Path 184" d="M-56.185,141.822l6.706,16.32-11.843,4.8L-68.169,146.5Z" transform="translate(147.041 -141.822)" fill="#fff"/>
  <path id="Path_185" data-name="Path 185" d="M-97.13,160.069l1.887,4.517-4.991,2.11-1.915-4.55Z" transform="translate(102.148 -117.714)" fill="#fff"/>
</svg>
