<svg id="Group_775" data-name="Group 775" xmlns="http://www.w3.org/2000/svg" width="49.61" height="60.684" viewBox="0 0 49.61 60.684">
  <path id="Path_166" data-name="Path 166" d="M-243.757-161.243l.894-2.236c.529,1.743,1.3,3.144,1.3,4.862-.046,13.422-.025,26.843-.025,40.266v1.051h-11.964v-.979c0-13.088.033-26.175-.035-39.263a14.064,14.064,0,0,1,1.347-5.849l.847,2.1.176.011,3.55-16.676.207-.006,3.551,16.7Zm-2.14,37.35a.856.856,0,0,0,.1-.259c-.022-2.61.022-5.224-.11-7.829a5.144,5.144,0,0,0-1.681-3.267,5.921,5.921,0,0,0-1.707,3.8c-.044,2.362-.05,4.722-.064,7.084a2.152,2.152,0,0,0,.108.474Zm-3.481-21.417h3.506c.693-3.785-.009-7.211-1.752-8.579C-250.051-151.416-249.2-148.307-249.378-145.31Z" transform="translate(253.59 177.965)" fill="#f88b48"/>
  <path id="Path_167" data-name="Path 167" d="M-216.36-117.287V-118.4c0-13.254.029-26.509-.033-39.763-.009-1.866.7-3.434,1.317-5.319l.884,2.219.167,0q1.773-8.338,3.545-16.674l.209-.026q1.773,8.333,3.545,16.668l.166.035.8-1.987.223-.06a15.17,15.17,0,0,1,1.094,3.892c.081,13.783.05,27.567.05,41.35v.778Zm7.684-6.6c0-2.758.077-5.421-.033-8.077a4.961,4.961,0,0,0-1.656-3.242,5.463,5.463,0,0,0-1.721,3.66c-.063,2.387-.059,4.777-.075,7.166a2.5,2.5,0,0,0,.1.493Zm-1.7-30.062c-2.487,2.574-1.622,5.69-1.8,8.636h3.617C-208.723-148.309-207.9-151.413-210.377-153.951Z" transform="translate(254 177.965)" fill="#f88b48"/>
  <path id="Path_168" data-name="Path 168" d="M-218.39-117.567h-3.564v-.886c0-4.259-.007-8.52,0-12.779a11.984,11.984,0,0,0-4.676-9.795c-.129-.105-.263-.206-.393-.309-2.008-1.591-1.984-1.559-4.032.041a12.461,12.461,0,0,0-5,10.5c.039,4.064.008,8.13.008,12.195v1.025H-239.6V-146.2a18.958,18.958,0,0,0,1.929-.017,2.531,2.531,0,0,0,1.208-.4q3.471-2.536,6.884-5.152a.792.792,0,0,1,1.155,0c2.009,1.541,4.071,3.013,6.057,4.583a3.687,3.687,0,0,0,2.954.99,7.134,7.134,0,0,1,1.023-.008Z" transform="translate(253.744 178.251)" fill="#f88b48"/>
  <path id="Path_169" data-name="Path 169" d="M-226.142-126.309h-5.82v8.607h-2c-.017-.266-.049-.536-.049-.8q0-6.345,0-12.689a10.319,10.319,0,0,1,4.953-9.11c2.971,1.963,4.829,4.646,4.916,8.245.115,4.754.028,9.513.028,14.338h-2.028Zm-2.943-3.983a2,2,0,0,0,2.053-1.963,2.034,2.034,0,0,0-2.008-2.108,2.045,2.045,0,0,0-2.061,1.973A2.031,2.031,0,0,0-229.085-130.292Z" transform="translate(253.806 178.38)" fill="#f88b48"/>
  <path id="Path_170" data-name="Path 170" d="M-234.99-150.19c-.256-3.561.131-5.873,1.3-7.832l.824,2.058.167-.006,3.552-16.117.186.008q1.776,8.056,3.553,16.111l.17.006.812-2.05c1.514,2.426,1.47,5.046,1.3,7.773a5.967,5.967,0,0,1-.555-.33c-1.6-1.2-3.214-2.391-4.8-3.612a.784.784,0,0,0-1.148,0c-1.51,1.183-3.061,2.315-4.6,3.465C-234.448-150.554-234.676-150.408-234.99-150.19Z" transform="translate(253.794 178.03)" fill="#f88b48"/>
</svg>
